<?xml version="1.0" encoding="UTF-8" standalone="no"?>
<!-- Created with Inkscape (http://www.inkscape.org/) -->

<svg
   width="65.358971mm"
   height="65.358971mm"
   viewBox="0 0 65.358971 65.358971"
   version="1.1"
   id="svg508"
   inkscape:version="1.2.2 (b0a8486541, 2022-12-01)"
   sodipodi:docname="favicon.svg"
   xmlns:inkscape="http://www.inkscape.org/namespaces/inkscape"
   xmlns:sodipodi="http://sodipodi.sourceforge.net/DTD/sodipodi-0.dtd"
   xmlns="http://www.w3.org/2000/svg"
   xmlns:svg="http://www.w3.org/2000/svg">
  <sodipodi:namedview
     id="namedview510"
     pagecolor="#ffffff"
     bordercolor="#000000"
     borderopacity="0.25"
     inkscape:showpageshadow="2"
     inkscape:pageopacity="0.0"
     inkscape:pagecheckerboard="0"
     inkscape:deskcolor="#d1d1d1"
     inkscape:document-units="mm"
     showgrid="false"
     inkscape:zoom="3.3638608"
     inkscape:cx="126.34292"
     inkscape:cy="95.871981"
     inkscape:window-width="2256"
     inkscape:window-height="1435"
     inkscape:window-x="0"
     inkscape:window-y="0"
     inkscape:window-maximized="1"
     inkscape:current-layer="layer1" />
  <defs
     id="defs505" />
  <g
     inkscape:label="Layer 1"
     inkscape:groupmode="layer"
     id="layer1">
    <rect
       style="fill:none;stroke-width:0.999992;-inkscape-stroke:none;paint-order:markers fill stroke;stop-color:#000000"
       id="rect1613"
       width="65.358971"
       height="65.358971"
       x="-1.4210855e-14"
       y="0"
       inkscape:export-filename="./favicon-512x512.png"
       inkscape:export-xdpi="198.97501"
       inkscape:export-ydpi="198.97501" />
    <path
       style="fill:#1a5576;fill-opacity:1;stroke-width:0.999999"
       d="m 43.692949,63.210432 c 0,-0.6231 0.24427,-1.5189 0.46982,-1.7229 0.29999,-0.2716 0.36472,-0.1165 0.13236,0.3168 -0.11089,0.2067 -0.2285,0.6756 -0.26131,1.0418 -0.0666,0.7423 -0.34087,1.0354 -0.34087,0.3643 z m 0.78719,-0.4614 c 0,-0.4961 0.2327,-1.026 0.72434,-1.6496 0.12733,-0.1614 0.30741,-0.4067 0.4002,-0.5449 0.0927,-0.1382 0.39047,-0.5375 0.66151,-0.8872 0.6338,-0.8176 0.80041,-1.223 0.80041,-1.9475 0,-0.4504 -0.0686,-0.6869 -0.29315,-1.011 -0.60693,-0.8757 -1.73163,-0.8301 -3.15105,0.1278 -0.27665,0.1867 -0.53001,0.3394 -0.56299,0.3394 -0.0331,0 -0.42268,0.298 -0.8659,0.6623 -1.11859,0.9192 -1.81116,1.2619 -2.42967,1.2023 -0.47296,-0.045 -0.67625,-0.1921 -0.67982,-0.4902 -0.004,-0.3634 0.71876,-1.5055 1.40492,-2.219 0.41572,-0.4322 0.83683,-0.9075 0.93578,-1.0562 0.34959,-0.5248 0.69283,-1.5354 0.69334,-2.0411 0,-0.4397 -0.0562,-0.567 -0.3997,-0.8997 -0.36487,-0.3534 -0.45391,-0.3856 -1.009,-0.366 -1.01935,0.035 -1.74482,0.4459 -3.31389,1.8722 -1.11,1.0091 -2.15841,1.3544 -2.70124,0.8895 -0.12645,-0.1082 -0.29149,-0.1967 -0.36676,-0.1967 -0.0795,0 -0.15034,-0.1889 -0.16883,-0.4499 -0.0669,-0.9452 0.80977,-1.9632 1.90217,-2.2087 0.24439,-0.055 0.65734,-0.1937 0.91763,-0.3084 0.26028,-0.1148 0.6959,-0.2765 0.96799,-0.3594 0.3226,-0.098 0.72935,-0.3739 1.16895,-0.7921 0.64197,-0.6108 0.67095,-0.6618 0.60575,-1.0634 -0.0421,-0.2581 -0.20958,-0.5674 -0.43191,-0.7968 -0.34291,-0.3539 -0.40743,-0.3751 -1.14047,-0.3751 -1.19255,0 -2.13424,0.2937 -3.7333,1.1644 -0.18558,0.1014 -0.52169,0.1839 -0.74691,0.1843 -0.34368,5e-4 -0.4209,-0.045 -0.48032,-0.2813 -0.0849,-0.3382 0.12943,-0.7864 0.57057,-1.1931 0.29444,-0.2716 1.55333,-1.1114 1.66588,-1.1114 0.0268,0 0.38287,-0.1594 0.79093,-0.3542 0.85154,-0.4068 1.05691,-0.7033 0.98172,-1.4168 l -0.0504,-0.4779 h 0.43352 c 0.2384,3e-4 0.61064,0.047 0.82709,0.1035 0.21648,0.056 0.8237,0.1332 1.34947,0.17 1.40037,0.098 1.89175,0.1749 2.63313,0.4122 0.36585,0.1173 0.79597,0.2111 0.95587,0.2085 l 0.29068,-0.01 -0.29305,-0.1593 c -0.16118,-0.088 -0.69254,-0.2643 -1.18076,-0.3928 -2.44935,-0.6443 -4.44824,-1.2385 -4.61902,-1.373 -0.15186,-0.1197 -0.37331,0.2116 -0.37331,0.5585 0,0.2927 -0.11837,0.3861 -0.29892,0.2363 -0.0897,-0.075 -0.15093,-0.355 -0.15093,-0.6912 v -0.566 l -0.23385,0.2117 c -0.19751,0.1787 -0.22215,0.2907 -0.15866,0.7203 0.0412,0.2797 0.14655,0.5885 0.23385,0.6862 0.0872,0.097 0.15585,0.3506 0.15246,0.5622 -0.007,0.4427 -0.28537,0.7081 -1.24691,1.1898 -1.12581,0.564 -2.03136,1.2377 -2.56605,1.9092 -0.23236,0.2918 -0.25412,0.9199 -0.0442,1.2752 0.19122,0.3237 0.24154,0.3454 0.65764,0.2826 0.24784,-0.038 1.03256,-0.3508 1.74379,-0.6968 1.20506,-0.586 1.36077,-0.6327 2.28316,-0.6823 0.91666,-0.049 1.01025,-0.034 1.26514,0.2052 0.15135,0.1422 0.2752,0.3336 0.2752,0.4255 0,0.2972 -0.89455,1.3631 -1.27856,1.5235 -1.0261,0.4287 -1.19191,0.3005 -0.24873,-0.1922 0.76611,-0.4004 0.98194,-0.6386 1.00383,-1.1083 l 0.0175,-0.3729 -0.70253,-0.034 c -0.7701,-0.037 -1.614,0.2153 -2.94241,0.8786 -0.6293,0.3141 -0.80692,0.3538 -1.39456,0.3113 -0.5612,-0.041 -0.71744,-0.1004 -0.9376,-0.3558 -0.70334,-0.8178 -0.0107,-1.9952 1.76984,-3.008 2.09674,-1.1925 2.41569,-1.549 1.59266,-1.7804 -0.44708,-0.1257 -3.56142,-0.5873 -5.25727,-0.7793 -0.55666,-0.064 -2.06827,-0.1473 -3.3592,-0.1873 -2.46633,-0.076 -4.4788,0.1004 -5.33565,0.4682 -0.68068,0.2924 -0.79782,-0.038 -0.16096,-0.4528 0.85134,-0.5555 2.78933,-0.7988 6.29745,-0.7902 1.73797,0.011 2.50213,-0.031 2.50213,-0.1168 0,-0.4891 -1.37934,-2.1906 -2.14821,-2.6499 -0.71273,-0.4258 -1.2197,-0.8907 -1.15501,-1.0593 0.0465,-0.1213 -0.0752,-0.1406 -0.59635,-0.095 -0.59657,0.052 -0.69611,0.027 -1.11859,-0.2815 -0.52585,-0.3842 -0.65586,-0.809 -0.41958,-1.371 0.24388,-0.58 0.9065,-0.7571 1.85028,-0.4946 0.19245,0.053 0.42939,0.4887 0.51337,0.9427 0.0632,0.342 0.15029,0.4473 0.15029,0.1818 0,-0.3363 0.30296,-0.1479 0.69403,0.4318 0.44478,0.6593 1.3929,1.3443 2.17354,1.5702 0.30926,0.09 0.95384,0.1979 1.43239,0.2409 0.47852,0.043 0.84329,0.1214 0.81053,0.1744 -0.18851,0.305 -2.25584,0.4801 -2.72082,0.2304 -0.15309,-0.083 -0.25305,-0.092 -0.25305,-0.024 0,0.1731 0.33763,0.3152 0.95588,0.4025 0.30926,0.044 0.94182,0.1802 1.40569,0.3032 0.46387,0.123 1.22292,0.2885 1.68679,0.3678 0.46388,0.08 1.34946,0.2311 1.968,0.3376 0.7512,0.1292 1.31822,0.3008 1.70801,0.5168 0.3209,0.1778 0.94421,0.3985 1.38509,0.4904 0.4409,0.092 0.95783,0.2451 1.14875,0.3403 0.19092,0.095 0.45741,0.1732 0.59222,0.1732 0.13482,0 0.27921,0.035 0.3209,0.075 0.0417,0.041 0.18926,0.086 0.32799,0.098 0.21801,0.019 1.59746,0.4642 2.27639,0.7336 0.65455,0.2595 1.07201,0.3626 1.14983,0.2838 0.15072,-0.1526 -0.77184,-0.8338 -1.82455,-1.3472 -2.25204,-1.0984 -3.41482,-1.6377 -4.21706,-1.9561 -0.46388,-0.1841 -1.17236,-0.4859 -1.57434,-0.6705 -0.66188,-0.304 -1.49026,-0.6497 -3.09252,-1.2902 -0.30926,-0.1236 -0.66347,-0.2207 -0.78719,-0.2159 -0.34181,0.014 -0.85698,-0.2634 -1.43324,-0.7707 -0.46898,-0.4127 -0.53103,-0.4382 -0.63155,-0.2586 -0.10425,0.1864 -0.12878,0.183 -0.38005,-0.053 -0.1477,-0.1388 -0.31592,-0.2532 -0.37377,-0.2542 -0.0578,0 -0.35579,-0.2368 -0.66206,-0.5241 -0.84529,-0.7926 -1.54948,-1.3007 -1.62764,-1.1744 -0.0383,0.062 -0.44731,-0.1927 -0.9104,-0.5666 -0.46257,-0.3735 -0.96869,-0.7372 -1.12476,-0.8084 -0.36212,-0.1653 -0.92685,-0.6022 -2.06766,-1.5999 -1.27355,-1.1137 -1.59963,-1.4557 -1.93748,-2.0322 -0.16232,-0.2769 -0.46558,-0.6396 -0.67392,-0.8059 -0.20836,-0.1662 -0.3788,-0.3417 -0.3788,-0.39 -3e-5,-0.048 -0.16503,-0.2327 -0.36666,-0.4097 -0.20167,-0.177 -0.43582,-0.5171 -0.52036,-0.7556 -0.18714,-0.5283 -0.34062,-0.7339 -0.48228,-0.6464 -0.0588,0.036 -0.21327,-0.027 -0.34337,-0.1418 l -0.23657,-0.2077 0.21553,0.374 c 0.27167,0.4716 0.53085,0.7092 0.43727,0.4008 -0.0357,-0.1169 0.0772,0.066 0.25046,0.4065 0.17324,0.3404 0.60601,0.9829 0.96163,1.4278 0.35566,0.4447 0.64662,0.862 0.64662,0.9272 0,0.065 0.0759,0.1185 0.16865,0.1185 0.1647,0 0.21631,0.1273 0.17482,0.4314 -0.0136,0.1004 0.052,0.1274 0.19768,0.082 0.15824,-0.05 0.23449,-0.011 0.27764,0.1582 0.0327,0.1252 0.15283,0.2623 0.26694,0.3048 0.41398,0.1543 0.83174,0.5359 0.80096,0.7317 -0.0183,0.1167 0.114,0.3042 0.32077,0.4546 0.19357,0.1406 0.74448,0.5593 1.22425,0.9304 0.47977,0.3711 1.18216,0.8773 1.56091,1.1246 0.37873,0.2474 0.96643,0.6591 1.30598,0.9149 0.33954,0.2557 0.72322,0.497 0.85259,0.5361 0.27084,0.082 0.82282,0.6294 0.63441,0.6294 -0.069,0 -0.15565,-0.049 -0.19259,-0.1087 -0.0369,-0.06 -0.33092,-0.2401 -0.65326,-0.4007 -0.32234,-0.1605 -0.76318,-0.4302 -0.97965,-0.5994 -0.21647,-0.1693 -0.6317,-0.4452 -0.92272,-0.6133 -0.29102,-0.1681 -0.898,-0.5832 -1.34891,-0.9225 -0.45087,-0.3391 -0.9056,-0.6166 -1.0105,-0.6166 -0.1049,0 -0.22348,-0.053 -0.26355,-0.1179 -0.0985,-0.1592 -2.50902,-1.7256 -3.08128,-2.0021 -0.49137,-0.2375 -0.64421,-0.1545 -0.17655,0.096 0.15462,0.083 0.28111,0.1925 0.28111,0.244 0,0.051 0.0705,0.093 0.15667,0.093 0.0862,0 0.18479,0.073 0.21922,0.1631 0.0344,0.09 0.25493,0.2644 0.48997,0.3886 0.23508,0.124 0.37679,0.2253 0.31494,0.225 -0.0619,-2e-4 -0.28956,-0.096 -0.50607,-0.2137 -0.21646,-0.1174 -0.51089,-0.2669 -0.65428,-0.3322 -0.14341,-0.065 -0.42648,-0.2452 -0.62913,-0.3996 -0.20261,-0.1546 -0.42975,-0.2811 -0.50472,-0.2811 -0.075,0 -0.72807,-0.2999 -1.4513,-0.6664 -0.72322,-0.3665 -1.84932,-0.8664 -2.50247,-1.1108 -0.65309,-0.2443 -1.90675,-0.8119 -2.78591,-1.2614 -0.87917,-0.4493 -1.62553,-0.7899 -1.65857,-0.7569 -0.0331,0.034 0.30973,0.2857 0.76175,0.5613 0.5341,0.3258 0.81096,0.5633 0.79077,0.6783 -0.0232,0.1325 0.13125,0.2109 0.61132,0.3106 0.58527,0.1215 1.29854,0.4296 3.74928,1.6197 0.97985,0.4758 1.15067,0.5751 1.69734,0.987 0.22275,0.1678 0.77963,0.4799 1.23747,0.6934 0.45783,0.2134 0.93362,0.4724 1.05733,0.5755 l 0.22492,0.1873 -0.22492,-0.077 c -0.72165,-0.2467 -0.9642,-0.3512 -1.57438,-0.6773 -0.81656,-0.4365 -2.76487,-1.1758 -3.09869,-1.1758 -0.13252,0 -0.40042,-0.071 -0.5953,-0.1588 -0.44822,-0.2007 -1.71051,-0.5943 -2.15364,-0.6715 -0.18557,-0.032 -1.02054,-0.1845 -1.85552,-0.3383 -2.7596898,-0.5081 -5.6688598,-0.829 -5.7866498,-0.6385 -0.0409,0.066 -0.0332,0.1207 0.0167,0.1211 0.59856,0.01 2.97001,0.3823 3.5770698,0.567 0.43295,0.1316 1.0149,0.2905 1.29324,0.3531 0.27832,0.063 1.00602,0.2604 1.6171,0.4397 0.61109,0.1794 1.22993,0.3262 1.3752,0.3262 0.27738,0 0.8779,0.1741 3.19272,0.9257 1.4864,0.4827 2.46362,0.9126 2.2945,1.0095 -0.0558,0.031 -0.40526,-0.032 -0.77635,-0.1437 -0.85321,-0.2554 -2.92409,-0.7323 -3.87973,-0.8936 -0.73503,-0.1239 -1.55602,-0.243 -3.06438,-0.4446 -1.11063,-0.1485 -4.4320598,-0.1437 -5.8306898,0.01 -0.97251,0.1058 -1.27838,0.1922 -2.03484,0.5748 -0.48965,0.2477 -0.86339,0.4772 -0.83052,0.51 0.0328,0.033 0.35195,-0.044 0.70907,-0.1711 0.35712,-0.1271 1.00355,-0.2846 1.43649,-0.3499 2.26396,-0.342 2.48698,-0.3564 3.76723,-0.2427 0.71128,0.064 1.8245798,0.1151 2.4740098,0.1154 1.9455,0 7.22623,0.945 7.20383,1.2876 -0.004,0.057 -1.56672,0.1114 -3.63336,0.1242 -1.99469,0.013 -3.75321,0.055 -3.90783,0.096 -0.15463,0.041 -0.45825,0.097 -0.67473,0.1252 -1.4605898,0.1913 -3.6150298,0.6128 -5.2586698,1.0286 -0.57289,0.1449 -1.14219,0.2635 -1.26511,0.2635 -0.12294,0 -0.22351,0.074 -0.22351,0.1646 0,0.09 -0.18886,0.293 -0.41969,0.4499 -0.5574,0.3788 -0.33263,0.3609 0.54763,-0.044 0.3935,-0.1808 0.91789,-0.357 1.16529,-0.3915 0.69028,-0.096 1.78711,-0.2769 3.14873,-0.5188 2.5927698,-0.4605 3.4386598,-0.5545 5.5665198,-0.6187 1.93723,-0.059 2.86229,-0.011 3.99214,0.2172 0.12368,0.024 0.56647,0.082 0.98398,0.1262 0.4175,0.045 0.75905,0.1156 0.75905,0.1575 0,0.042 -0.80453,0.083 -1.78782,0.091 -0.9833,0.01 -2.21048,0.07 -2.72701,0.1363 -2.85661,0.3691 -4.96883,0.7881 -5.9434498,1.1791 -0.34017,0.1365 -0.99804,0.3893 -1.46191,0.5618 -1.40112,0.5211 -1.71862,0.6668 -2.25268,1.0331 -0.28159,0.1934 -0.72123,0.458 -0.97697,0.5886 -0.25575,0.1304 -0.4986,0.3431 -0.53967,0.4725 -0.0912,0.2871 0.002,0.4041 0.19618,0.2451 0.0787,-0.065 0.44691,-0.2812 0.818,-0.4808 0.3711,-0.1998 0.85185,-0.4698 1.06832,-0.6 0.54178,-0.3263 1.9747,-0.9421 2.40261,-1.0326 0.1939,-0.042 0.58025,-0.166 0.85858,-0.2779 0.9076798,-0.365 3.5052998,-1.0406 4.3771898,-1.1387 3.28744,-0.3694 5.0397,-0.4352 5.19181,-0.1948 0.15795,0.2497 0.0616,0.3551 -0.35315,0.3863 -3.11442,0.2346 -4.77245,0.5175 -6.18877,1.0558 -0.33512,0.1274 -0.67087,0.2317 -0.74613,0.2317 -0.18847,10e-5 -2.2706798,1.0361 -3.2749298,1.6296 -1.72321,1.0183 -3.50421,2.5895 -3.50421,3.0915 0,0.1817 0.69471,-0.4077 0.87511,-0.7425 0.0793,-0.1471 0.20137,-0.2676 0.2713,-0.2676 0.15587,0 1.22541,-0.6585 1.39222,-0.8572 0.21454,-0.2555 1.72613,-1.0584 2.7279598,-1.4488 0.53606,-0.2091 1.2887,-0.5106 1.67254,-0.67 0.38386,-0.1596 0.94051,-0.3396 1.23701,-0.4 1.43856,-0.2931 1.71845,-0.3395 2.45086,-0.4067 0.66618,-0.061 2.22607,-0.084 3.03625,-0.045 0.19165,0.01 0.19869,0.026 0.0476,0.1146 -0.0976,0.056 -0.73011,0.1351 -1.40569,0.1736 -1.30815,0.075 -2.25199,0.2181 -2.45419,0.3739 -0.068,0.052 -0.78145,0.3648 -1.58551,0.6946 -3.01358,1.2354 -5.0036098,2.9565 -6.7826498,5.8659 -0.40691,0.6654 -0.46699,0.8538 -0.51981,1.6304 -0.0583,0.8582 -0.0562,0.8679 0.0946,0.4191 0.0849,-0.2527 0.23588,-0.617 0.33555,-0.8098 0.0997,-0.1926 0.18123,-0.4341 0.18123,-0.5365 0,-0.3271 0.55396,-1.3028 1.10788,-1.9515 0.29532,-0.3458 0.65542,-0.8059 0.8002,-1.0223 0.55314,-0.8271 1.29139,-1.4678 2.1964798,-1.9062 1.63474,-0.792 2.35193,-1.094 3.20499,-1.3493 0.46387,-0.1389 0.89404,-0.2912 0.9559,-0.3385 0.21722,-0.1662 0.79428,-0.2747 1.51814,-0.2855 0.40199,-0.01 0.87011,-0.052 1.04021,-0.1024 0.20159,-0.06 0.30925,-0.049 0.30925,0.029 0,0.1183 -1.02678,0.6441 -2.24912,1.152 -0.73758,0.3065 -1.29335,0.643 -1.71633,1.0394 -0.17087,0.16 -0.38096,0.2639 -0.46689,0.231 -0.27328,-0.1049 -2.65232,1.5627 -2.65232,1.8591 0,0.064 -0.13929,0.187 -0.30953,0.275 -0.4581398,0.2369 -0.6615998,0.5118 -0.8477898,1.1453 -0.0919,0.3128 -0.35609,0.8641 -0.58708,1.2251 -0.4135,0.6465 -1.12886,2.6296 -0.99324,2.7534 0.0382,0.034 0.0928,0 0.12127,-0.082 0.039,-0.1094 0.0896,-0.1139 0.20489,-0.019 0.12171,0.1014 0.16674,0.062 0.21956,-0.1921 0.12923,-0.6205 0.7319,-2.3974 1.01839,-3.0025 0.16386,-0.3462 0.64185,-0.9816 1.0973898,-1.4591 0.4439,-0.4653 0.87553,-0.9289 0.95919,-1.0302 0.0837,-0.1014 0.22502,-0.1562 0.31414,-0.122 0.097,0.038 0.30599,-0.1015 0.52087,-0.3465 0.19735,-0.2248 0.53673,-0.4829 0.75419,-0.5735 0.21743,-0.091 0.52965,-0.2602 0.69384,-0.3768 0.16418,-0.1167 0.42366,-0.2121 0.57664,-0.2121 0.15295,0 0.34107,-0.076 0.41809,-0.1687 0.0771,-0.093 0.20967,-0.1687 0.29483,-0.1687 0.0852,0 0.42057,-0.1363 0.74533,-0.303 1.25116,-0.6419 1.44297,-0.7247 1.57655,-0.6802 0.0792,0.026 0.0183,0.1086 -0.14301,0.193 -0.34449,0.1805 -0.8971,0.8127 -0.82039,0.9383 0.0311,0.05 -0.0123,0.078 -0.0958,0.063 -0.38197,-0.074 -0.98373,0.2886 -2.17754,1.3133 -1.24378,1.0676 -1.99714,1.7966 -2.26081,2.1874 -0.14605,0.2164 -0.34687,0.5056 -0.4463,0.6423 -0.0994,0.1368 -0.22413,0.4152 -0.27716,0.6185 -0.053,0.2035 -0.19452,0.724 -0.31444,1.1569 -0.52117,1.8817 -0.72042,2.9605 -0.64259,3.4795 0.09,0.6005 0.28938,0.5809 0.28508,-0.027 -0.003,-0.4157 0.33057,-1.9819 0.63041,-2.9604 0.0878,-0.2867 0.15969,-0.6455 0.15969,-0.7975 0,-0.3685 1.04475,-1.9215 1.7446,-2.5931 1.4881,-1.4282 3.34191,-2.7364 4.2155,-2.975 0.97327,-0.2657 1.12458,-0.288 1.12458,-0.1665 0,0.1075 -1.33901,0.8121 -1.54336,0.8121 -0.15976,0 -2.05521,2.0015 -2.05521,2.1703 0,0.087 -0.15577,0.3725 -0.34615,0.6353 -0.43982,0.607 -0.77839,1.3938 -0.77839,1.8085 0,0.1772 -0.12335,0.717 -0.27409,1.1995 -0.54983,1.76 -0.70893,4.7449 -0.30144,5.6551 0.11643,0.26 0.24241,0.423 0.27993,0.3623 0.10618,-0.1718 -0.0452,-2.1972 -0.17595,-2.3549 -0.0651,-0.079 -0.0838,-0.302 -0.0421,-0.5069 0.0409,-0.2016 0.14258,-0.8472 0.22597,-1.4348 0.20525,-1.4468 0.48542,-2.5304 0.82867,-3.205 0.64702,-1.2718 0.92095,-1.859 0.92095,-1.9739 0,-0.1696 0.70474,-1.0017 0.85052,-1.0041 0.0658,0 0.26598,-0.155 0.44496,-0.3418 0.39447,-0.4117 1.4586,-1.1568 1.70347,-1.1927 0.0974,-0.015 0.31366,-0.1569 0.48052,-0.3167 0.16687,-0.1599 0.33059,-0.2634 0.36383,-0.2302 0.0936,0.094 -0.0331,0.6174 -0.14949,0.6174 -0.25922,0 -1.13201,1.0622 -1.76687,2.1503 -0.86004,1.4741 -1.55713,3.3872 -1.75689,4.8219 -0.22993,1.6515 -0.19402,4.0369 0.0762,5.0603 0.12255,0.4639 0.29629,1.1454 0.38615,1.5142 0.14203,0.583 0.45193,1.1502 0.56604,1.0361 0.0208,-0.021 -0.0327,-0.2868 -0.11943,-0.5911 -0.0865,-0.3043 -0.21498,-0.9076 -0.28558,-1.3405 -0.0706,-0.4329 -0.17945,-1.0817 -0.24197,-1.4416 -0.20235,-1.1649 -0.25964,-2.5288 -0.1136,-2.7048 0.0815,-0.098 0.12576,-0.4923 0.11374,-1.0118 -0.0136,-0.5883 0.0315,-0.9304 0.14633,-1.1076 0.0913,-0.1412 0.19599,-0.4449 0.23253,-0.6751 0.0867,-0.546 0.74418,-2.3089 1.00365,-2.6913 0.11141,-0.1642 0.20253,-0.3558 0.20253,-0.4257 0,-0.2514 0.49745,-0.924 1.48339,-2.0057 0.35957,-0.3945 0.53294,-0.4938 0.96621,-0.5532 l 0.52806,-0.072 -0.68171,0.6312 c -0.39596,0.3666 -0.76836,0.8341 -0.88843,1.1153 -0.11374,0.2665 -0.4019,0.8967 -0.64042,1.4008 -0.23854,0.5041 -0.58582,1.5414 -0.77177,2.3053 -0.18596,0.764 -0.40926,1.6663 -0.49627,2.0052 -0.10846,0.4228 -0.12219,0.6597 -0.0437,0.7545 0.063,0.075 0.0905,0.3157 0.0612,0.5332 -0.0817,0.606 0.1412,3.24 0.28918,3.4183 0.18774,0.2261 0.41551,0.9235 0.41751,1.278 0,0.1666 0.0933,0.369 0.20533,0.4499 0.25115,0.1812 0.92091,1.5965 0.92091,1.946 0,0.1991 0.0759,0.267 0.3423,0.3061 0.37586,0.055 0.5743,-0.1121 0.30918,-0.2605 -0.092,-0.051 -0.30373,-0.4117 -0.47046,-0.8005 -0.16671,-0.3888 -0.39664,-0.9092 -0.51093,-1.1566 -0.19301,-0.418 -0.47003,-1.4044 -0.69471,-2.474 -0.37585,-1.7899 -0.44194,-3.8564 -0.15636,-4.8918 0.0938,-0.3402 0.21765,-0.8812 0.2752,-1.2023 0.0575,-0.3211 0.25565,-0.9283 0.44024,-1.3495 0.18455,-0.421 0.37041,-0.9052 0.413,-1.076 0.0426,-0.1707 0.12245,-0.3381 0.17745,-0.3721 0.055,-0.034 0.1,-0.1469 0.1,-0.251 0,-0.2198 0.767,-1.3719 0.91335,-1.3719 0.16554,0 0.10969,0.3742 -0.1095,0.7337 -0.29909,0.4905 -0.44108,1.0141 -0.51759,1.9091 -0.0369,0.4329 -0.10711,1.0828 -0.15572,1.4442 -0.0486,0.3613 -0.0792,1.2976 -0.0676,2.0804 0.028,1.9266 0.16307,2.7461 0.6601,4.0097 0.14596,0.3712 0.46048,1.2058 0.69892,1.8547 0.23848,0.649 0.57671,1.3435 0.75169,1.5431 0.17499,0.1997 0.35507,0.5014 0.40026,0.6702 0.0598,0.2234 0.1831,0.3331 0.45324,0.4031 0.51777,0.1343 0.55798,0.026 0.14166,-0.3811 -0.19658,-0.1922 -0.35741,-0.3985 -0.35741,-0.4586 0,-0.061 -0.0996,-0.1931 -0.22156,-0.2959 -0.25684,-0.2164 -1.01488,-1.7158 -1.01666,-2.0109 0,-0.2909 -0.31333,-1.2728 -0.48947,-1.5426 -0.14808,-0.2269 -0.36751,-1.3214 -0.64025,-3.1934 -0.15874,-1.0895 -0.0942,-2.4436 0.16963,-3.5607 0.10227,-0.433 0.26411,-1.116 0.35965,-1.5181 0.25268,-1.0631 0.46872,-1.5065 0.65756,-1.3498 0.1123,0.093 0.21038,0.089 0.37997,-0.017 0.40777,-0.2547 0.39324,-10e-5 -0.0263,0.4646 -0.38919,0.4307 -0.40972,0.4932 -0.41695,1.268 -0.004,0.4482 -0.0276,0.9668 -0.0519,1.1523 -0.0802,0.6117 0.50441,2.8325 0.90896,3.4531 0.14944,0.2293 0.2417,0.495 0.20507,0.5904 -0.0435,0.1136 0,0.1736 0.12029,0.1736 0.11628,0 0.28875,0.2231 0.45643,0.5904 0.14825,0.3247 0.52512,0.9447 0.83747,1.3776 0.31235,0.4329 0.79101,1.1161 1.06371,1.5182 0.52745,0.7776 0.77907,1.0719 1.21026,1.4161 0.14778,0.1179 0.38508,0.4041 0.5273,0.6361 0.26691,0.4354 0.44083,0.5135 0.65857,0.2958 0.093,-0.093 -0.0289,-0.277 -0.46604,-0.7029 -0.69279,-0.6751 -1.63915,-1.8275 -1.63915,-1.9961 0,-0.064 -0.17188,-0.3282 -0.38193,-0.5861 -0.21009,-0.2577 -0.56847,-0.7976 -0.79647,-1.1997 -0.22798,-0.402 -0.48609,-0.8575 -0.57361,-1.012 -0.72981,-1.2897 -1.49694,-3.2116 -1.61586,-4.0484 -0.22042,-1.5508 -0.22013,-1.6699 0.005,-1.9562 0.11772,-0.1497 0.21404,-0.3257 0.21404,-0.3911 0,-0.1662 0.6743,-0.8393 0.75749,-0.7562 0.0373,0.038 -0.0387,0.1818 -0.16875,0.3207 -0.14339,0.1529 -0.26704,0.4817 -0.31358,0.8339 -0.0639,0.484 -0.0242,0.7193 0.23734,1.4056 0.45842,1.203 0.6037,1.3915 1.52283,1.9758 0.45774,0.291 0.89583,0.5904 0.97347,0.6654 0.0777,0.075 0.25482,0.171 0.39362,0.2133 1.33123,0.4046 4.37781,1.9988 5.30199,2.7745 0.24146,0.2027 0.54509,0.4418 0.67473,0.5315 0.47488,0.3287 2.26636,1.9407 2.48262,2.234 0.12249,0.1659 0.43875,0.5694 0.70282,0.8965 0.26411,0.3271 0.48015,0.6662 0.48015,0.7535 0,0.087 0.0657,0.1992 0.14578,0.2486 0.24406,0.1506 0.60215,0.8596 0.75958,1.5041 0.082,0.3355 0.20119,0.6792 0.26495,0.7637 0.30483,0.4041 0.79094,2.2684 0.6814,2.6135 -0.0814,0.2563 -0.35664,0.1583 -0.45711,-0.163 -0.0417,-0.1333 -0.19547,-0.3856 -0.34164,-0.5604 -0.17609,-0.2107 -0.26577,-0.4609 -0.26577,-0.7416 0,-0.7029 -0.65458,-2.3644 -1.06609,-2.7059 -0.1006,-0.084 -0.37764,-0.4853 -0.61573,-0.893 -0.23805,-0.4076 -0.6531,-0.9432 -0.92232,-1.1902 -0.26916,-0.2469 -0.68484,-0.6891 -0.92375,-0.9826 -0.39743,-0.4885 -1.21025,-1.1374 -2.37513,-1.8967 -0.24786,-0.1617 -0.57229,-0.402 -0.72088,-0.5341 -0.14863,-0.1323 -0.31414,-0.2404 -0.36773,-0.2404 -0.0537,0 -0.31155,-0.137 -0.57319,-0.3044 -0.74733,-0.4783 -2.34857,-1.27 -2.56844,-1.27 -0.10961,0 -0.22683,-0.045 -0.2605,-0.099 -0.0645,-0.1046 -0.62682,-0.2441 -0.62682,-0.1557 0,0.097 0.39395,0.761 0.49562,0.8346 0.0562,0.041 0.70465,0.6478 1.44122,1.3493 0.91214,0.8689 1.48928,1.3295 1.80976,1.4447 0.25876,0.093 0.5916,0.2544 0.73967,0.3593 0.29748,0.2104 0.68477,0.748 0.68591,0.9521 0,0.072 -0.34083,0.3998 -0.75832,0.7282 -0.41747,0.3287 -0.78541,0.6335 -0.81759,0.6775 -0.0323,0.044 -0.18399,0.1337 -0.33734,0.1992 -0.30942,0.1322 -0.56341,0.2841 -1.06605,0.6375 -0.18553,0.1304 -0.44667,0.2717 -0.5802,0.3138 -0.13359,0.042 -0.30428,0.1508 -0.37926,0.241 -0.0751,0.091 -0.25833,0.1645 -0.40738,0.1645 -0.14902,0 -0.45911,0.08 -0.68906,0.1773 -0.22998,0.097 -0.79765,0.2062 -1.26152,0.2415 -0.67596,0.051 -0.91032,0.1199 -1.18034,0.3448 -0.3364,0.2801 -0.33959,0.2803 -2.02235,0.2045 -0.92699,-0.042 -1.73433,-0.1249 -1.79408,-0.1849 -0.0598,-0.06 -0.188,-0.1085 -0.28499,-0.1085 -0.097,0 -0.36734,-0.1299 -0.60081,-0.2885 -0.23348,-0.1586 -0.51088,-0.2681 -0.6165,-0.2433 -0.10558,0.024 -0.4703,-0.096 -0.81048,-0.2699 -0.3402,-0.1733 -0.76259,-0.3681 -0.93863,-0.4328 -0.1761,-0.065 -0.34644,-0.2183 -0.37862,-0.3413 -0.0323,-0.1229 -0.10248,-0.2235 -0.15629,-0.2235 -0.13812,0 -0.45685,-0.8012 -0.38902,-0.9781 0.0311,-0.081 0.007,-0.1465 -0.0527,-0.1465 -0.0599,0 -0.10893,-0.075 -0.10893,-0.1686 0,-0.093 -0.046,-0.1687 -0.10206,-0.1687 -0.0562,0 -0.0881,0.2776 -0.0708,0.6169 0.0191,0.3786 -0.0255,0.6937 -0.11588,0.8154 -0.13947,0.188 -0.15578,0.1866 -0.31281,-0.025 -0.0911,-0.1231 -0.14221,-0.2617 -0.11356,-0.308 0.0286,-0.046 -0.0178,-0.058 -0.10311,-0.024 -0.21007,0.081 -1.78943,-1.2546 -1.96028,-1.6571 -0.0748,-0.1761 -0.22654,-0.354 -0.33736,-0.3952 -0.2164598,-0.081 -0.7758898,-0.4528 -1.0192998,-0.6781 -0.082,-0.075 -0.23979,-0.2025 -0.3506,-0.2812 -0.11082,-0.079 -0.33606,-0.4806 -0.50052,-0.8932 -0.23219,-0.5824 -0.29904,-0.9422 -0.29904,-1.6092 0,-1.0118 -0.17826,-1.0468 -0.29025,-0.056 -0.0417,0.3682 -0.13966,0.7569 -0.21777,0.8638 -0.13035,0.1782 -0.18708,0.1576 -0.68855,-0.2504 -1.01368,-0.8244 -1.30075,-1.2913 -1.29445,-2.1055 l 0.004,-0.5608 -0.2728,0.2562 -0.27279,0.2563 -0.25503,-0.3205 c -0.41642,-0.5232 -0.77438,-1.1964 -0.95437,-1.7944 -0.16075,-0.5341 -0.15475,-0.9569 0.0279,-1.9688 l 0.071,-0.3936 -0.33974,0.5231 c -0.31022,0.4776 -0.7369,0.8826 -0.92993,0.8826 -0.14743,0 -0.42265,-1.1871 -0.48688,-2.0999 l -0.0646,-0.9191 0.66603,-0.8802 c 0.36632,-0.4841 0.64726,-0.8995 0.6243,-0.9231 -0.023,-0.024 -0.32588,0.2167 -0.67318,0.5342 -0.68114,0.6224 -1.08422,0.733 -1.28755,0.3531 -0.20393,-0.3811 -0.27031,-1.9312 -0.11125,-2.5983 0.11254,-0.472 0.25571,-0.7142 0.64187,-1.0856 0.27336,-0.2628 0.54401,-0.4778 0.60145,-0.4778 0.0574,0 0.10447,-0.056 0.10447,-0.1257 0,-0.076 -0.0987,-0.097 -0.25303,-0.053 -0.78391,0.2233 -0.83605,0.2164 -0.90153,-0.1193 -0.0344,-0.176 0.0285,-0.7479 0.1398,-1.2707 0.20811,-0.9784 0.21046,-0.982 1.08098,-1.6693 l 0.32737,-0.2583 -0.35162,0.056 c -0.5076,0.082 -0.76957,-0.1464 -0.68073,-0.5906 0.12363,-0.6181 0.5224,-1.3624 0.96942,-1.8095 0.45104,-0.451 0.87748,-0.5967 2.20167,-0.7523 0.96975,-0.114 0.72035,-0.2553 -0.40901,-0.2316 -1.3686,0.028 -1.42419,-0.052 -0.83405,-1.2151 0.54621,-1.0761 0.73137,-1.1813 2.07952,-1.1813 1.05385,0 3.0174,0.2484 3.54288,0.4482 0.16504,0.063 0.41065,0.117 0.5457798,0.1206 0.13514,0.01 0.49857,0.126 0.80762,0.2721 0.54795,0.259 0.88318,0.2715 0.46595,0.018 -0.11502,-0.07 -0.84417,-0.5701 -1.6203398,-1.1113 -0.77616,-0.5413 -1.45754,-0.984 -1.51415,-0.984 -0.0567,0 -0.40282,-0.286 -0.76933,-0.6356 -0.50873,-0.4852 -0.66638,-0.7114 -0.66638,-0.9559 0,-0.262 0.0485,-0.3203 0.26685,-0.3203 0.51329,0 2.12345,0.8704 4.8825798,2.6394 0.6365,0.408 1.20155,0.7145 1.25569,0.6811 0.0541,-0.033 0.26708,0.134 0.47332,0.3721 0.36126,0.4171 1.79717,1.368 2.06588,1.368 0.0719,0 0.32854,0.1431 0.57026,0.3183 0.24166,0.175 0.58976,0.356 0.7735,0.4022 0.18378,0.046 0.75174,0.3296 1.2622,0.63 0.51046,0.3005 0.9538,0.5048 0.98517,0.454 0.0641,-0.1035 -0.93472,-0.8967 -1.47004,-1.1671 -0.26139,-0.132 -0.38091,-0.144 -0.47713,-0.048 -0.0963,0.096 -0.22016,0.06 -0.49469,-0.1437 -0.20142,-0.1496 -0.59398,-0.4262 -0.87228,-0.6147 -1.14842,-0.7779 -1.89648,-1.3845 -2.84045,-2.3038 -0.54812,-0.5336 -1.01727,-0.9367 -1.04256,-0.8958 -0.0253,0.041 0.0837,0.1955 0.24201,0.3437 0.3609,0.3375 0.59357,0.7325 0.34744,0.5898 -0.24883,-0.1444 -1.542,-1.8344 -1.542,-2.0154 0,-0.034 -0.14229,-0.2752 -0.31619,-0.5338 -0.54151,-0.8051 -1.1781998,-2.2217 -1.1903398,-2.6486 -0.0108,-0.3798 0.0133,-0.4104 0.3491598,-0.4428 0.24173,-0.023 0.4182,0.032 0.53483,0.1685 0.19555,0.2288 0.91064,1.2096 1.37838,1.8904 0.16993,0.2476 0.69936,0.9603 1.17649,1.5841 1.23539,1.6149 1.5513,1.8368 1.01123,0.7103 -0.7254,-1.513 -1.07427,-2.9497 -1.0821,-4.4561 -0.005,-1.025 0.0199,-1.1755 0.23174,-1.3873 0.20597,-0.2059 0.30304,-0.2246 0.72828,-0.1404 l 0.49066,0.097 0.1916,0.8965 c 0.43989,2.0584 0.49851,2.2934 0.59354,2.38 0.0559,0.051 0.0642,0.029 0.0187,-0.049 -0.0445,-0.077 -0.0545,-0.1405 -0.0221,-0.1405 0.0323,0 0.11634,0.1073 0.18654,0.2384 0.0897,0.1677 0.0909,0.2159 0.004,0.1621 -0.071,-0.044 -0.12369,0.01 -0.12369,0.1109 0,0.1187 0.0607,0.1641 0.1655,0.1238 0.11523,-0.044 0.23292,0.089 0.38729,0.4378 0.12194,0.2758 0.25697,0.5014 0.30002,0.5014 0.043,0 0.0427,-0.7484 0,-1.6631 -0.0915,-1.9216 0.0536,-2.7589 0.65209,-3.7624 0.3951,-0.6626 0.81196,-0.825 1.2049,-0.4695 0.24413,0.221 0.28876,0.8281 0.0764,1.0404 -0.0992,0.099 -0.1366,0.6716 -0.13176,2.0186 0.007,2.1138 0.15904,2.8637 0.5913,2.9281 0.1327,0.02 0.24125,0.094 0.24125,0.1647 0,0.073 0.0806,0.048 0.18713,-0.059 0.15943,-0.1594 0.16445,-0.2145 0.034,-0.3716 -0.14141,-0.1705 -0.16419,-0.1693 -0.29841,0.015 -0.24949,0.3412 -0.28983,0.094 -0.15178,-0.9313 0.29705,-2.2065 0.43765,-2.7493 0.87759,-3.3884 0.58855,-0.8549 1.03762,-1.2719 1.28515,-1.1933 0.11162,0.034 0.20296,0.015 0.20296,-0.047 0,-0.1536 0.73873,-0.3843 0.98248,-0.3069 0.10936,0.034 0.265,0.1691 0.34594,0.2987 0.12193,0.1953 0.1204,0.2772 -0.009,0.4791 -0.263,0.4109 -0.57025,2.5142 -0.57969,3.9683 -0.006,1.0589 -0.0408,1.3509 -0.15288,1.308 -0.43481,-0.1662 0.46859,2.783 1.19109,3.8883 0.15433,0.2361 0.18161,0.2431 0.27797,0.071 0.073,-0.1303 0.0632,-0.2178 -0.0306,-0.2759 -0.0894,-0.055 -0.11098,-0.206 -0.0617,-0.4304 0.0629,-0.2866 0.0246,-0.3899 -0.2236,-0.6046 -0.16474,-0.1424 -0.37458,-0.4032 -0.46634,-0.5797 -0.23525,-0.4523 -0.4816,-1.3097 -0.37636,-1.3097 0.0485,0 0.14545,0.2276 0.21553,0.506 0.14952,0.5938 0.42002,0.6829 0.42668,0.1406 0.0119,-0.9636 1.00676,-3.2792 1.56657,-3.6459 0.33538,-0.2198 0.77482,-0.067 1.36828,0.4771 l 0.39446,0.3613 -0.24889,0.4027 c -0.13686,0.2215 -0.33645,0.6445 -0.44356,0.9398 -0.1071,0.2955 -0.3126,0.7627 -0.45668,1.0385 -0.15994,0.3061 -0.21511,0.5169 -0.14166,0.5414 0.0662,0.022 0.0924,0.1128 0.0585,0.2016 -0.0404,0.1057 0.0128,0.1614 0.15404,0.1614 0.14242,0 0.26852,-0.134 0.37035,-0.3936 0.085,-0.2165 0.19092,-0.3936 0.23551,-0.3936 0.0446,0 0.14613,-0.2538 0.22565,-0.564 0.0861,-0.3359 0.29493,-0.7282 0.51644,-0.97 0.20453,-0.2233 0.37186,-0.4486 0.37186,-0.5008 0,-0.052 0.0759,-0.066 0.1687,-0.03 0.0928,0.035 0.16869,0.01 0.16869,-0.065 0,-0.071 0.12895,-0.2663 0.2866,-0.4337 0.27248,-0.2894 0.29411,-0.2943 0.44041,-0.099 0.0846,0.1131 0.24941,0.1893 0.3662,0.1695 0.303,-0.051 0.79569,0.305 0.83845,0.6063 0.0234,0.1654 0.12577,0.2686 0.28931,0.2918 0.19666,0.027 0.25302,0.1094 0.25302,0.3655 0,0.3253 -0.0675,0.3672 -0.56226,0.3493 -0.0927,-0.01 -0.39082,0.2773 -0.66232,0.6238 -0.41819,0.5335 -0.47369,0.6617 -0.36314,0.8387 0.13452,0.2153 0.12045,0.2479 -0.324,0.7477 -0.42962,0.483 -0.91636,1.3929 -0.98229,1.8359 -0.10642,0.7157 -0.0588,1.8529 0.0899,2.1456 0.32112,0.6324 1.63788,2.4864 1.97791,2.7849 0.20702,0.1817 0.3764,0.366 0.3764,0.4094 0,0.043 0.0838,0.1714 0.18612,0.2846 0.10237,0.1131 0.1389,0.2056 0.0813,0.2056 -0.13099,0 -0.49227,-0.4136 -0.49227,-0.5635 0,-0.061 -0.0506,-0.1112 -0.11246,-0.1112 -0.17336,0 -0.13435,0.1667 0.11246,0.4804 0.12373,0.1573 0.22493,0.3189 0.22493,0.359 0,0.099 0.70282,0.7349 0.81222,0.7349 0.13953,0 0.10206,-0.1348 -0.0993,-0.3573 -0.10269,-0.1134 -0.15972,-0.2333 -0.12674,-0.2662 0.0331,-0.034 0.47156,0.3799 0.97462,0.9176 0.81721,0.8733 1.88555,1.7301 2.15744,1.7301 0.0551,0 0.18097,0.1235 0.27983,0.2744 0.0988,0.1509 0.24796,0.2481 0.33131,0.2162 0.0833,-0.031 0.20581,0.043 0.27206,0.1669 0.0663,0.1238 0.41172,0.3616 0.76769,0.5285 1.12037,0.5252 2.62279,1.1756 2.71528,1.1756 0.0488,0 0.15352,-0.1961 0.23261,-0.4358 0.11655,-0.3531 0.11667,-0.5184 0,-0.8715 -0.19601,-0.597 -0.57935,-1.1822 -1.01394,-1.5479 l -0.36399,-0.3063 -0.34929,0.3275 c -0.47772,0.4479 -0.59775,0.4737 -1.52937,0.3295 -0.93064,-0.1441 -1.09742,-0.3265 -0.96137,-1.0517 0.0932,-0.4967 0.85987,-1.3421 1.12487,-1.2404 0.23331,0.09 0.35533,-0.1596 0.1514,-0.309 -0.0928,-0.068 -0.24499,-0.2754 -0.33836,-0.461 -0.21132,-0.4199 -0.12317,-0.772 0.36276,-1.4487 0.27469,-0.3825 0.34512,-0.5749 0.29033,-0.7932 -0.0747,-0.2975 -0.005,-0.352 0.24554,-0.1929 0.17656,0.112 0.0832,0.3903 -0.41291,1.2319 -0.43379,0.7356 -0.43697,0.934 -0.0225,1.398 0.37801,0.4229 0.5507,0.3679 0.31418,-0.1004 -0.17244,-0.3412 -0.16385,-0.4224 0.11407,-1.0802 0.16385,-0.3879 0.19467,-0.4087 0.36944,-0.2506 0.13855,0.1254 0.20941,0.4382 0.25923,1.1443 0.0379,0.5345 0.11547,1.0186 0.17275,1.0759 0.064,0.064 0.22051,0.011 0.4054,-0.1589 0.53821,-0.4702 1.52291,-0.713 1.52291,-0.3755 0,0.1014 -0.10415,0.1686 -0.26301,0.1686 -0.30079,0 -1.0762,0.5464 -1.08232,0.7627 -0.004,0.079 -0.08,0.1732 -0.17282,0.2088 -0.26653,0.1025 -0.20095,0.458 0.0983,0.5331 0.33787,0.085 1.03448,0.7876 1.31304,1.3246 0.31048,0.5986 0.36991,1.1942 0.18064,1.8098 -0.0903,0.2938 -0.12215,0.5604 -0.0706,0.5921 0.1287,0.08 0.22412,-0.099 0.38095,-0.7147 0.21184,-0.8311 0.0573,-1.4769 -0.54224,-2.2652 -0.58952,-0.7751 -0.51522,-0.9133 0.10697,-0.1989 0.66045,0.7585 0.87841,1.3469 0.79863,2.1561 -0.0369,0.3759 -0.0981,0.8137 -0.13563,0.9728 -0.0638,0.2706 -0.009,0.3161 0.83636,0.7028 0.49755,0.2274 0.95784,0.4134 1.02297,0.4134 0.065,0 0.20622,0.048 0.31358,0.1067 0.64362,0.3509 2.73997,1.3553 2.82897,1.3553 0.10629,0 1.90861,1.066 2.05368,1.2146 0.042,0.043 0.0928,0.2271 0.11242,0.4086 0.0297,0.2725 -0.0132,0.3419 -0.24537,0.3989 -0.17476,0.043 -0.28132,0.1487 -0.28161,0.2794 0,0.3139 -0.19428,0.3306 -1.50341,0.1293 -1.04114,-0.1601 -3.70828,-0.5285 -5.15904,-0.7125 -0.40141,-0.051 -0.47795,-0.029 -0.47795,0.1338 0,0.1068 -0.0826,0.3684 -0.18357,0.5812 -0.14617,0.308 -0.42838,0.524 -1.38559,1.06 -1.34699,0.7543 -2.36675,1.6141 -2.36675,1.9957 0,0.3385 0.33198,0.3206 0.99043,-0.053 1.43358,-0.8148 2.43145,-1.092 3.70457,-1.0292 0.73317,0.036 0.84997,0.075 1.15926,0.3842 0.36863,0.3686 0.67027,1.081 0.58909,1.3914 -0.17184,0.6571 -2.44131,2.3648 -3.14269,2.3648 -0.49809,0 -1.64132,0.8425 -1.88206,1.3868 -0.29102,0.6582 -0.30432,0.7771 -0.11067,0.9912 0.42787,0.4727 1.19335,0.1837 2.28677,-0.8636 0.73239,-0.7014 1.54654,-1.2767 2.31715,-1.6372 0.73593,-0.3444 1.77512,-0.3657 2.20347,-0.045 0.43098,0.3224 0.64472,1.0761 0.54335,1.9156 -0.13588,1.1251 -0.25582,1.3581 -1.32357,2.5717 -0.67508,0.7673 -1.08734,1.6614 -0.95173,2.064 0.17797,0.5284 0.64668,0.3548 1.88207,-0.6972 1.63477,-1.392 2.78863,-1.9751 3.90866,-1.9751 0.47905,0 0.60141,0.049 0.88906,0.357 0.51659,0.5531 0.68638,0.9711 0.6707,1.6511 -0.0162,0.6937 -0.21872,1.103 -1.12195,2.2652 -0.95703,1.2314 -0.98987,1.2783 -1.24561,1.7812 -0.13648,0.2684 -0.23942,0.6226 -0.2288,0.7872 0.0315,0.4887 0.004,0.5804 -0.17316,0.5804 -0.12465,0 -0.16869,-0.1305 -0.16869,-0.4997 z m -27.88595,-5.7387 c -0.14324,-0.1524 -0.30368,-0.2504 -0.35656,-0.2178 -0.15093,0.093 -0.11239,0.271 0.0588,0.271 0.0852,0 0.21889,0.077 0.29714,0.1715 0.0782,0.094 0.16899,0.1447 0.20163,0.112 0.0327,-0.032 -0.0577,-0.1841 -0.20104,-0.3367 z m 19.56428,-12.7666 c 0,-0.062 -0.0571,-0.1125 -0.12682,-0.1125 -0.0849,0 -0.1031,-0.1483 -0.0549,-0.4498 0.0661,-0.4129 0.0511,-0.4499 -0.18241,-0.4521 -0.13988,0 -0.68447,-0.1322 -1.21023,-0.2909 -0.52571,-0.1587 -1.20885,-0.359 -1.5181,-0.4453 -0.76297,-0.2129 -2.43175,-0.522 -2.49205,-0.4617 -0.0268,0.027 0.0801,0.2797 0.23766,0.5619 0.15752,0.2821 0.28643,0.5887 0.28643,0.6815 0,0.2378 0.15,0.3047 0.81906,0.3651 0.7427,0.067 3.81603,0.5907 3.88776,0.6625 0.0981,0.098 0.35362,0.056 0.35362,-0.059 z m -18.34106,-0.4983 c -0.0297,-0.03 -0.1208,0.057 -0.2027,0.1942 -0.14225,0.2368 -0.13984,0.2393 0.0537,0.053 0.11144,-0.1068 0.17847,-0.2185 0.14888,-0.248 z m 18.2286,-0.9636 c 0,-0.062 -0.0789,-0.1125 -0.17531,-0.1125 -0.0964,0 -0.14405,0.05 -0.10581,0.1125 0.0383,0.062 0.1171,0.1124 0.17534,0.1124 0.0581,0 0.10578,-0.05 0.10578,-0.1124 z m -16.75577,-0.2811 c 0.0807,-0.097 0.0916,-0.1687 0.0259,-0.1687 -0.0629,0 -0.14333,0.075 -0.17895,0.1687 -0.0357,0.093 -0.0472,0.1686 -0.0259,0.1686 0.0213,0 0.10196,-0.075 0.17894,-0.1686 z m 7.75941,-4.2727 c 0,-0.2663 -0.30139,-0.4214 -0.55508,-0.2856 -0.27996,0.1498 -0.29578,0.2944 -0.0475,0.4334 0.23284,0.1303 0.60257,0.04 0.60257,-0.1478 z m 7.93988,-0.3686 c 0.49918,-0.4097 0.45733,-0.9525 -0.0459,-0.5955 -0.4183,0.2969 -1.25913,0.4266 -1.25913,0.1943 0,-0.1917 0.51535,-0.6364 0.73747,-0.6364 0.19117,0 0.852,-0.5594 0.78638,-0.6656 -0.028,-0.045 -0.30975,-0.049 -0.62582,-0.01 -0.71238,0.091 -1.31813,0.6289 -1.42064,1.2608 -0.0657,0.4043 -0.0624,0.4082 0.42502,0.517 0.74699,0.1667 1.14209,0.1483 1.40264,-0.066 z m -6.07444,-1.7962 c -0.12095,-0.121 -0.18514,0.049 -0.10028,0.2645 0.0796,0.2026 0.0856,0.2029 0.12505,0.01 0.0225,-0.113 0.0114,-0.2353 -0.0246,-0.2716 z m -11.09445,-1.3107 c -0.10384,-0.1035 -1.00438,-0.1852 -1.00438,-0.091 0,0.055 0.2369,0.1085 0.52648,0.1195 0.28953,0.012 0.50459,0 0.4779,-0.028 z m 8.89163,-0.01 c 0,-0.029 -0.11387,-0.1075 -0.25302,-0.175 -0.24299,-0.1176 -0.24434,-0.1156 -0.0348,0.052 0.22943,0.1839 0.28775,0.2087 0.28775,0.1227 z m -1.68905,-1.9185 c -0.0782,-0.094 -0.17155,-0.1422 -0.20733,-0.1063 -0.0357,0.036 0.009,0.1121 0.10038,0.1697 0.23811,0.1505 0.26918,0.1321 0.10699,-0.064 z m -7.35695,-0.1133 c -0.12003,-0.091 -0.34776,-0.1613 -0.50604,-0.1565 -0.26156,0.01 -0.25191,0.023 0.10584,0.16 0.52083,0.2006 0.66836,0.1994 0.4002,-0.01 z m 6.47174,-0.024 c -0.17476,-0.3178 -0.45456,-0.6545 -0.45843,-0.5515 -0.004,0.1092 0.43497,0.7483 0.51408,0.7483 0.0289,0 0.004,-0.089 -0.0556,-0.1968 z m 0.30603,-0.3548 c -0.22757,-0.3985 -0.43068,-0.588 -0.43068,-0.4018 0,0.1152 0.59614,0.9571 0.64396,0.9092 0.0268,-0.027 -0.0691,-0.2551 -0.21328,-0.5074 z m 1.59349,0.502 c 0,-0.027 -0.0506,-0.082 -0.11245,-0.119 -0.0618,-0.039 -0.11246,-0.016 -0.11246,0.049 0,0.066 0.0506,0.1191 0.11246,0.1191 0.0618,0 0.11245,-0.023 0.11245,-0.049 z m -0.33733,-0.4106 c 0,-0.067 -0.10122,-0.2515 -0.22493,-0.4087 -0.12368,-0.1573 -0.22493,-0.3489 -0.22493,-0.4257 0,-0.077 -0.0811,-0.2071 -0.18037,-0.2894 -0.0992,-0.083 -0.22063,-0.2555 -0.26977,-0.3849 -0.1584,-0.4166 -0.23593,-2.0065 -0.12593,-2.583 0.0729,-0.3818 0.0682,-0.6319 -0.0149,-0.7869 -0.14408,-0.2691 -0.14659,-0.2625 -0.34835,0.9187 -0.14383,0.8419 -0.13936,0.9974 0.0514,1.7993 0.18382,0.7728 0.59052,1.7219 0.91834,2.1429 0.13482,0.1731 0.41929,0.1851 0.41929,0.018 z m -5.28541,-1.3399 c -0.52573,-0.4839 -0.97119,-0.8379 -0.98997,-0.787 -0.0311,0.085 0.33423,0.4522 1.43344,1.4444 0.21297,0.1922 0.41542,0.3209 0.44985,0.286 0.0344,-0.034 -0.36757,-0.4595 -0.89332,-0.9434 z m 2.40633,-0.427 c -0.0646,-0.043 -0.15008,-0.1668 -0.19,-0.275 -0.0399,-0.1082 -0.1278,-0.1968 -0.19525,-0.1968 -0.13287,0 -0.0607,0.1672 0.20694,0.4786 0.0933,0.1087 0.19803,0.1692 0.23267,0.1346 0.0348,-0.034 0.0105,-0.098 -0.0544,-0.1414 z m -4.60759,-0.1437 c -0.11658,-0.1288 -0.3648,-0.3032 -0.55159,-0.3875 -0.36651,-0.1655 -2.19514,-1.8589 -2.19514,-2.0329 0,-0.058 -0.14477,-0.2815 -0.32175,-0.4966 -0.17693,-0.2151 -0.45863,-0.6619 -0.62606,-0.9927 -0.49336,-0.9752 -0.46208,-0.5726 0.0387,0.4956 0.25272,0.5393 0.45946,1.0307 0.45946,1.0919 0,0.061 -0.20033,-0.1103 -0.44518,-0.3811 -0.52546,-0.5811 -0.60711,-0.4356 -0.10944,0.195 0.34257,0.4341 0.61671,0.6678 1.87037,1.5942 0.61697,0.4558 1.76921,1.1143 1.99098,1.1376 0.0559,0.011 0.006,-0.095 -0.11016,-0.2235 z m -6.85134,-0.7779 c -0.0382,-0.062 -0.1201,-0.1125 -0.18196,-0.1125 -0.0618,0 -0.0811,0.05 -0.043,0.1125 0.0382,0.062 0.1201,0.1125 0.18195,0.1125 0.0618,0 0.0811,-0.05 0.043,-0.1125 z m -0.68036,-0.3294 c -0.15412,-0.1507 -0.8130198,-0.2944 -0.6691,-0.1459 0.0618,0.064 0.21366,0.1404 0.33737,0.1702 0.38348,0.092 0.4462,0.088 0.33173,-0.024 z m 0.55234,-0.6264 c -0.0705,-0.1839 -0.26557,-0.232 -0.26557,-0.066 0,0.086 0.0788,0.1434 0.30572,0.2253 0.0135,0.011 -0.005,-0.067 -0.0402,-0.1598 z m 6.79418,-0.4121 c -0.0242,-0.072 -0.16525,-0.2113 -0.31384,-0.3093 -0.2293,-0.1514 -0.25548,-0.1528 -0.17311,-0.01 0.174,0.3023 0.31248,0.4497 0.42256,0.4497 0.0594,0 0.0884,-0.06 0.0644,-0.1309 z m -0.73538,-1.4716 c -0.17723,-0.3246 -0.38924,-0.8321 -0.47115,-1.1274 -0.19606,-0.7073 -0.39378,-0.8316 -0.28642,-0.1801 0.10885,0.6606 0.29748,1.0937 0.66738,1.5324 0.43629,0.5174 0.46128,0.4551 0.0901,-0.2249 z m -8.4610198,0.253 c -0.0927,-0.061 -0.21928,-0.109 -0.28113,-0.109 -0.0618,0 -0.0366,0.048 0.0563,0.109 0.0927,0.06 0.21929,0.1091 0.28113,0.1091 0.0618,0 0.0366,-0.049 -0.0563,-0.1091 z m 6.4487298,-0.286 c -0.0366,-0.095 -0.0907,-0.1493 -0.12019,-0.1199 -0.0294,0.029 -0.0204,0.1076 0.0204,0.1736 0.1109,0.1793 0.17571,0.1445 0.0997,-0.053 z m -1.62045,-2.9255 c -0.12471,-0.3057 -0.19896,-0.4187 -0.16504,-0.2514 0.0868,0.4282 0.28154,0.9172 0.34142,0.8573 0.0276,-0.027 -0.0517,-0.3004 -0.17638,-0.6059 z m 7.87123,-0.134 c 0.004,-0.1392 -0.0366,-0.253 -0.0913,-0.253 -0.0546,0 -0.1,0.2151 -0.10102,0.4779 0,0.3575 0.0217,0.4212 0.0913,0.253 0.0511,-0.1237 0.0967,-0.3387 0.10102,-0.4779 z m 22.83622,37.2623 c 0,-0.024 0.28502,-0.4135 0.63338,-0.8644 0.63741,-0.8249 1.16274,-1.7948 1.16478,-2.1503 0,-0.1055 -0.13206,-0.3249 -0.29489,-0.4877 -0.25144,-0.2515 -0.35709,-0.2845 -0.70265,-0.2197 -0.84835,0.1592 -1.74112,0.6416 -2.6445,1.4289 -0.5012,0.4367 -1.2225,0.9414 -1.60291,1.1215 -0.59754,0.2828 -0.77057,0.3168 -1.2716,0.2504 -0.56858,-0.075 -1.14956,-0.3997 -0.99459,-0.5553 0.0431,-0.043 0.21438,0.028 0.3806,0.1589 0.39325,0.3093 1.09951,0.3224 1.30833,0.024 0.0822,-0.1174 0.4572,-0.3937 0.83322,-0.6142 0.37601,-0.2204 0.95681,-0.6577 1.29063,-0.972 1.0672,-1.0044 1.74456,-1.3974 2.4569,-1.4255 0.88503,-0.034 1.08841,0.042 1.30359,0.496 0.30352,0.6396 0.17656,1.3407 -0.40419,2.232 -0.26938,0.4135 -0.54272,0.8083 -0.60745,0.8775 -0.0647,0.069 -0.18952,0.2649 -0.27729,0.435 -0.0877,0.17 -0.2522,0.3092 -0.36543,0.3092 -0.11327,0 -0.20593,-0.02 -0.20593,-0.045 z m -5.90849,-1.9515 c -0.0358,-0.1701 -0.0822,-0.3958 -0.1029,-0.5015 -0.0811,-0.4135 0.36842,-1.3441 0.88487,-1.832 0.19644,-0.1855 0.5286,-0.5651 0.7381,-0.8433 0.2095,-0.2784 0.5173,-0.6326 0.68399,-0.7872 0.1667,-0.1547 0.41335,-0.5816 0.54812,-0.9488 0.24319,-0.6625 0.2434,-0.6698 0.0272,-0.9559 -0.14328,-0.1894 -0.30917,-0.2789 -0.48419,-0.2611 -0.14642,0.015 -0.37916,0.034 -0.51718,0.042 -0.13801,0.01 -0.30865,0.085 -0.37925,0.1697 -0.0706,0.085 -0.18051,0.1545 -0.24426,0.1545 -0.0638,0 -0.37887,0.2404 -0.70018,0.5342 -0.90311,0.8257 -2.095,1.6492 -2.52997,1.7483 -0.86277,0.1965 -1.41547,0.1051 -2.07057,-0.3424 -0.33971,-0.2321 -0.67069,-0.5382 -0.73546,-0.6802 -0.1826,-0.4004 -0.13949,-1.1914 0.0942,-1.7284 0.34121,-0.7843 1.33322,-1.56 1.98088,-1.549 0.31031,0.01 0.29441,0.023 -0.19845,0.2232 -0.75867,0.3081 -1.27673,0.8231 -1.54259,1.5336 -0.27491,0.7347 -0.27839,0.8494 -0.0408,1.3497 0.38185,0.8046 1.48211,1.1123 2.35329,0.658 0.18055,-0.094 0.38796,-0.1715 0.46086,-0.1719 0.0729,-4e-4 0.19937,-0.066 0.28111,-0.1457 0.99575,-0.9716 2.23105,-1.9443 2.69118,-2.1191 0.55177,-0.2097 1.26947,-0.2719 1.61327,-0.14 0.46183,0.1772 0.5734,1.1443 0.21192,1.8369 -0.0821,0.1573 -0.14962,0.3406 -0.14999,0.4073 -3.5e-4,0.067 -0.50612,0.6466 -1.12387,1.2886 -1.41057,1.4659 -1.80673,2.2725 -1.53085,3.1164 0.0504,0.1542 0.0366,0.2531 -0.0352,0.2531 -0.0648,0 -0.14718,-0.1392 -0.183,-0.3092 z m 11.27832,-4.233 c -0.30291,-0.2298 -0.84653,-1.5296 -0.97442,-2.3298 -0.26755,-1.6738 -0.36888,-3.8666 -0.23895,-5.1715 0.14489,-1.4556 0.43204,-3.2222 0.56468,-3.4745 0.0489,-0.093 0.15463,-0.5267 0.23471,-0.9635 0.11773,-0.6421 0.19552,-0.8178 0.40615,-0.9172 0.19207,-0.091 0.28188,-0.089 0.34156,0.01 0.0967,0.1554 0.0483,0.6181 -0.0922,0.8817 -0.24431,0.458 -0.46516,2.0127 -0.608,4.2799 -0.21418,3.3992 -0.0638,4.6213 0.78986,6.4198 0.40089,0.8445 0.40378,0.8607 0.20244,1.1371 -0.23215,0.3189 -0.34677,0.3429 -0.6258,0.1312 z m -7.44982,-3.6664 c -0.25464,-0.3674 -0.30032,-0.5312 -0.25093,-0.8996 0.0331,-0.2476 0.0144,-0.4504 -0.0412,-0.4504 -0.14193,0 -0.12765,-2.2297 0.0187,-2.9117 0.10983,-0.5122 0.14179,-0.5533 0.36549,-0.469 0.18102,0.068 0.24017,0.1767 0.22633,0.4152 -0.0105,0.1776 -0.0545,0.8288 -0.0981,1.4474 -0.0595,0.8431 -0.0336,1.3659 0.10311,2.0892 0.10038,0.5305 0.18242,1.0239 0.18242,1.0964 0,0.2522 -0.19628,0.1289 -0.50561,-0.3175 z m -6.18544,0.018 c 0.16239,-0.1613 0.45172,-0.2057 0.48474,-0.074 0.0158,0.062 -0.11242,0.1291 -0.28443,0.1494 -0.2075,0.024 -0.2749,0 -0.20031,-0.075 z m 6.5256,-8.3797 c -0.19642,-0.1436 -0.19837,-0.1841 -0.0341,-0.7027 0.0959,-0.3029 0.20822,-0.7529 0.24953,-1.0003 0.0412,-0.2475 0.20456,-0.88 0.3628,-1.4058 0.15819,-0.5256 0.37904,-1.2594 0.49077,-1.6305 0.11175,-0.3711 0.22493,-0.8265 0.25154,-1.0122 0.0268,-0.1855 0.22942,-0.9445 0.45069,-1.6868 0.22123,-0.7421 0.50498,-1.7795 0.63048,-2.3053 0.49151,-2.0586 0.71022,-3.0323 0.97254,-4.3295 0.15008,-0.7422 0.32324,-1.5518 0.38483,-1.7994 0.25226,-1.0135 0.10447,-2.1856 -0.36182,-2.87 -0.20822,-0.3055 -0.40765,-0.416 -1.15149,-0.638 -2.12979,-0.6355 -5.63423,-1.3057 -7.53448,-1.4409 -0.43293,-0.03 -1.05912,-0.084 -1.39153,-0.1169 -0.5504,-0.055 -0.5966,-0.043 -0.517,0.1408 0.0481,0.1111 0.0923,0.3285 0.0984,0.4832 0.009,0.2492 -0.0362,0.2824 -0.4054,0.2927 -0.22897,0.01 -0.55789,0.1076 -0.73096,0.225 l -0.31464,0.2133 0.67472,0.057 c 0.89812,0.075 1.46193,0.4017 1.46193,0.8478 0,0.2939 -0.0457,0.3366 -0.42741,0.3986 -0.53741,0.088 -0.75468,0.2766 -0.43426,0.3784 0.4037,0.1281 0.9179,0.8187 0.9179,1.2329 0,0.4994 -0.26407,0.7295 -0.54515,0.4752 -0.28494,-0.2578 -0.69185,-0.241 -0.69185,0.028 0,0.1172 0.0759,0.2421 0.16869,0.2777 0.38996,0.1496 0.12317,1.4156 -0.3988,1.8924 -0.5136,0.4691 -0.75132,0.424 -0.75132,-0.1426 0,-0.6294 -0.21626,-0.8238 -0.80564,-0.7242 -0.34189,0.058 -0.54947,0.1841 -0.79866,0.4866 -0.311,0.3771 -0.35068,0.3944 -0.51968,0.2254 -0.30394,-0.3039 -0.25485,-1.0865 0.10081,-1.6075 0.16813,-0.2464 0.30566,-0.4867 0.30566,-0.5342 0,-0.1456 -0.39419,-0.096 -0.62511,0.078 -0.27257,0.2061 -0.61187,0.2204 -0.61187,0.025 0,-0.081 0.15066,-0.3844 0.33487,-0.6748 0.30394,-0.4792 0.31496,-0.528 0.1191,-0.528 -0.35839,0 -0.37862,-0.214 -0.065,-0.6878 0.16373,-0.2474 0.28239,-0.5403 0.26366,-0.6509 -0.0187,-0.1107 0.023,-0.2721 0.0928,-0.3589 0.0697,-0.087 0.16184,-0.2721 0.20464,-0.4117 l 0.0778,-0.2539 -0.3733,0.2142 c -0.54522,0.3128 -0.79815,0.3595 -1.02443,0.1889 -0.19157,-0.1444 -0.18686,-0.1879 0.0982,-0.8999 0.16474,-0.4115 0.26378,-0.784 0.22008,-0.8278 -0.0437,-0.044 -1.40279,-0.096 -3.02018,-0.1176 -1.61924,-0.021 -3.03304,-0.088 -3.14617,-0.1482 -0.30862,-0.1651 -0.18269,-0.4706 0.2593,-0.6288 0.38843,-0.1392 0.38571,-0.1404 -0.28252,-0.1271 -0.95932,0.02 -0.95588,0.02 -0.95588,-0.3409 0,-0.3956 0.32752,-0.5716 2.19288,-1.1789 1.66381,-0.5416 2.30534,-0.7833 2.30534,-0.8685 0,-0.039 -0.1392,-0.099 -0.30925,-0.1335 -0.17009,-0.035 -0.48563,-0.2203 -0.70121,-0.4132 -0.43926,-0.3932 -0.82187,-0.3888 -1.13329,0.013 -0.15683,0.2023 -0.1913,0.2079 -0.3203,0.052 -0.15067,-0.1815 -0.12691,-1.077 0.0383,-1.4457 0.14528,-0.3242 -0.22446,-0.2378 -0.48122,0.1124 -0.29063,0.3964 -0.4572,0.2488 -0.48028,-0.4255 -0.0174,-0.5102 0.25387,-1.3287 0.48861,-1.4738 0.0951,-0.059 0.0902,-0.1264 -0.0183,-0.257 -0.12363,-0.149 -0.11798,-0.1772 0.0352,-0.1772 0.21803,0 0.23644,-0.2204 0.0408,-0.488 -0.12084,-0.1654 -0.19605,-0.1749 -0.51177,-0.065 -0.46056,0.1605 -0.54119,0.09 -0.30602,-0.2693 0.10736,-0.1638 0.16142,-0.412 0.13069,-0.6001 -0.0289,-0.1765 -0.0566,-0.3554 -0.0616,-0.3975 -0.0213,-0.1777 -0.47106,-0.2025 -0.84445,-0.046 -0.3486,0.1455 -0.40182,0.1462 -0.40182,0.01 0,-0.09 0.0472,-0.1629 0.10477,-0.1629 0.0577,0 0.20997,-0.1477 0.33854,-0.3283 0.21834,-0.3066 0.22135,-0.3404 0.0457,-0.5161 -0.19296,-0.1929 -0.76356,-0.1923 -1.20873,0 -0.22522,0.098 -0.22515,0.1092 -0.004,-0.6847 0.048,-0.1723 -0.0144,-0.2871 -0.23463,-0.4313 -0.35982,-0.2357995 -0.69546,-0.1731 -1.15797,0.2161 -0.41197,0.3466 -0.49431,0.3518 -0.44929,0.028 0.0216,-0.1561 -0.0187,-0.2423 -0.10541,-0.2248 -0.19883,0.04 -0.17524,-0.1595 0.028,-0.2375 0.11901,-0.044999 0.1687,-0.2313995 0.1687,-0.6305995 0,-0.6207 0.19062,-0.7652 0.29845,-0.226 0.082,0.4097 0.0764,0.4059 0.73117,0.5039 0.51768,0.077 0.52572,0.074 0.71515,-0.3254 0.21698,-0.4573 0.39184,-0.4375 0.39184,0.045 0,0.3655 0.53718,1.0534995 0.63575,0.8141995 0.0869,-0.2108995 0.2639,-0.05 0.2639,0.2388 0,0.1392 0.0633,0.3376 0.14054,0.4409 0.12803,0.1711 0.17499,0.1577 0.52517,-0.1505 0.4612,-0.4059 0.7172,-0.29 0.40658,0.1841 -0.23078,0.3523 -0.19126,0.9172 0.10847,1.5487 0.23088,0.4865 0.31342,0.5063 0.49061,0.1173 0.0844,-0.1851 0.19334,-0.269 0.29747,-0.2291 0.0988,0.039 0.21567,-0.036 0.29297,-0.1857 0.0708,-0.1369 0.26127,-0.3625 0.42342,-0.5015 0.2882,-0.2467 0.28991,-0.2563 0.0765,-0.4216 -0.20439,-0.1584 -0.18827,-0.1692 0.25303,-0.1692 0.39876,0 0.47131,0.034 0.47131,0.2285 0,0.1256 -0.0736,0.2566 -0.16351,0.2911 -0.16389,0.063 -0.62368,0.7565 -0.62368,0.9409 0,0.053 0.13962,0.059 0.31027,0.01 0.17068,-0.049 0.42549,-0.046 0.5663,0.011 0.24482,0.091 0.24843,0.1091 0.0833,0.4286 -0.45398,0.8779 0.09,2.4749 0.74375,2.1833 0.2284,-0.1014 0.22249,-0.1201 -0.17571,-0.5423 -0.22664,-0.2403 -0.3971,-0.5146 -0.37883,-0.6094 0.0566,-0.2937 0.76,-0.6865 1.22909,-0.6865 0.5241,0 0.56801,-0.2009 0.15204,-0.6952 -0.33943,-0.4034 -0.35546,-0.6647 -0.0573,-0.9344 0.1879,-0.1701 0.35013,-0.1919 1.01206,-0.1364 0.7231,0.061 0.78834,0.049 0.78834,-0.1479 0,-0.2391 -0.41223,-0.6726 -0.6397,-0.6726 -0.0811,0 -0.14749,-0.1014 -0.14749,-0.2249 0,-0.3157 0.12585,-0.2816 0.54021,0.1459 0.28362,0.2926 0.3594,0.4666 0.3594,0.8247 0,0.5845 0.0909,0.6632 0.41457,0.3591 0.21728,-0.2041 0.24966,-0.3158 0.18761,-0.6477 -0.0413,-0.2204 -0.15568,-0.4625 -0.25425,-0.5379 -0.16198,-0.1238 -0.16028,-0.1373 0.0174,-0.1405 0.10825,0 0.19683,-0.058 0.19683,-0.1234 0,-0.3699 -0.83262,-1.3421995 -1.14931,-1.3421995 -0.12522,0 -0.20015,-0.084 -0.20015,-0.2248 0,-0.1238 0.0506,-0.225 0.11242,-0.225 0.0619,0 0.11247,-0.1212 0.11247,-0.2694 0,-0.1672 0.1494,-0.4007 0.39362,-0.6151 0.46174,-0.4054 0.47993,-0.4654 0.14054,-0.4633 -0.4498,0 -0.75004,0.1303 -0.81915,0.3479 -0.0369,0.117 -0.11471,0.2128 -0.17239,0.2128 -0.16334,0 -0.12338,-0.7502 0.0638,-1.1982 0.0927,-0.222 0.16868,-0.4228 0.16868,-0.4462 0,-0.024 -0.17876,-0.042 -0.39722,-0.042 -0.46736,0 -1.0576,0.2262 -1.27525,0.4886 -0.24563,0.2962 -0.35171,0.2193 -0.35171,-0.2551 0,-0.3138 0.0865,-0.544 0.29959,-0.7973 0.42885,-0.5096 0.26769,-0.5878 -1.22738,-0.5956 -0.29378,0 -0.53414,-0.041 -0.53414,-0.087 0,-0.4162 0.54208,-0.7776 1.16623,-0.7776 0.34849,0 0.39881,-0.039 0.47018,-0.3638 0.10578,-0.4816 0.34744,-0.8364 0.61793,-0.9071 0.18931,-0.049 0.21966,0 0.21966,0.3678 0,0.5424 0.11616,1.1281 0.22368,1.1281 0.0457,0 0.16806,-0.2224 0.2719,-0.4943 0.13133,-0.344 0.32922,-0.5872 0.65046,-0.7999 0.97586,-0.6457 1.49894,-0.5443 0.97649,0.1894 -0.29334,0.4121 -0.37849,1.4381 -0.12644,1.5248 0.0774,0.027 0.14056,-0.019 0.14056,-0.1014 0,-0.3705 1.69815,-1.3072 2.01491,-1.1116 0.10029,0.062 0.0472,0.1861 -0.19185,0.4477 -0.31282,0.3425 -0.58606,0.9945 -0.58606,1.3986 0,0.2334 0.0297,0.2309 0.47522,-0.041 0.26398,-0.1609 0.56711,-0.2246 1.07101,-0.2249 0.80127,-4e-4 0.91832,0.1611 0.35691,0.4928 -0.1903,0.1124 -0.44314,0.3637 -0.56181,0.5584 l -0.21583,0.3541 0.25256,0.067 c 0.24808,0.066 0.24707,0.07 -0.0572,0.215 -0.17035,0.082 -0.33959,0.1181 -0.37615,0.082 -0.14256,-0.1425 0.10102,-0.77 0.41339,-1.0648 0.40301,-0.3805 0.41214,-0.4797 0.0439,-0.4797 -0.40557,0 -0.96494,0.2612 -1.27113,0.5934 -0.22807,0.2474 -0.24439,0.3192 -0.12381,0.5445 0.13312,0.2487 0.14226,0.2504 0.22127,0.039 0.0454,-0.1215 0.1896,-0.3171 0.32059,-0.435 0.29816,-0.2682 0.32596,-0.053 0.0616,0.4774 -0.25633,0.5138 -0.17944,0.8718 0.1766,0.8223 0.15462,-0.021 0.34653,-0.093 0.42647,-0.1583 0.10269,-0.085 0.1814,-0.084 0.26803,0 0.0887,0.089 0.0169,0.1853 -0.25778,0.3484 -0.58748,0.3484 -0.66164,0.4442 -0.66164,0.8546 0,0.3327 0.0395,0.3862 0.30924,0.4172 0.36634,0.042 0.41305,0.2457 0.0677,0.2949 -0.23815,0.034 -0.27266,0.087 -0.48767,0.7507 -0.0958,0.2953995 -0.0722,0.3654995 0.1978,0.5880995 l 0.30653,0.2528 -0.25302,0.071 c -0.32956,0.093 -0.31983,0.2417 0.034,0.5202 0.15799,0.1242 0.36592,0.4225 0.46205,0.6627 0.28991,0.7246 0.5949,0.491 0.59865,-0.4585 0,-0.3071 -0.0983,-0.4911 -0.4717,-0.8715 -0.26028,-0.2652 -0.53859,-0.4822 -0.61849,-0.4822 -0.18484,0 -0.18739,-0.165 -0.005,-0.3054995 0.21332,-0.1643 1.30885,-0.1822 1.49889,-0.024 0.23895,0.1983995 0.28974,0.086 0.20363,-0.4531 -0.0688,-0.4303 -0.12369,-0.496 -0.57531,-0.6897 -0.27461,-0.1177 -0.59627,-0.214 -0.71485,-0.214 -0.11858,0 -0.21557,-0.046 -0.21557,-0.1035 0,-0.2273 1.16877,-0.7587 1.53774,-0.6992 0.29989,0.049 0.23589,-0.2088 -0.13244,-0.5322 -0.43119,-0.3785 -0.47433,-0.4646 -0.23317,-0.4646 0.32783,0 0.85204,0.5678 0.85204,0.9228 0,0.3107 -0.0268,0.3353 -0.30925,0.2813 -0.17004,-0.032 -0.48113,0.013 -0.69125,0.1004 l -0.38201,0.1597 0.26954,0.2593 c 0.14826,0.1427 0.30365,0.2427 0.3453,0.2223 0.14335,-0.07 0.54118,0.6173 0.59338,1.0252 0.029,0.2248 0.0764,0.4475995 0.10586,0.4952995 0.0294,0.048 0.0123,0.1534 -0.0383,0.2351 -0.0723,0.1169 -0.16423,0.095 -0.4334,-0.1046 -0.33726,-0.2493 -0.873,-0.3795995 -1.06732,-0.2595 -0.0549,0.035 0.0944,0.2607 0.33195,0.504 0.3786,0.3877 0.43151,0.5075 0.42871,0.9711 -0.005,0.7542 -0.12921,1.1205 -0.41181,1.2102 -0.17791,0.056 -0.29921,0.012 -0.43947,-0.1612 -0.21608,-0.2668 -0.32629,-0.3038 -0.32629,-0.1094 0,0.1521 -0.54642,1.3322 -0.6168,1.3322 -0.0264,0 -0.23436,-0.1265 -0.46221,-0.2811 -0.54659,-0.371 -0.76701,-0.3703 -0.67351,0 0.0732,0.2917 -0.0897,0.7239 -0.32595,0.8645 -0.0736,0.044 -0.14084,0.2659 -0.14944,0.4939 -0.0183,0.4843 -0.0868,0.5866 -0.27048,0.4029 -0.17966,-0.1797 -0.53792,-0.169 -0.53792,0.017 0,0.082 0.12861,0.27 0.28583,0.4176 0.30607,0.2875 0.3399,0.7599 0.0489,0.6824 -0.6403,-0.1706 -1.02559,0.1516 -0.9819,0.821 0.0341,0.5201 -0.15786,0.6447 -0.34843,0.2265 -0.20338,-0.4464 -0.0492,-1.0175 0.36191,-1.3404 l 0.35259,-0.2769 -0.32547,-0.303 -0.32545,-0.303 0.25357,-0.2053 c 0.2506,-0.203 0.43481,-0.2503 0.81983,-0.211 0.36017,0.037 0.37424,-0.3454 0.0229,-0.6254 -0.27979,-0.2232 -0.29722,-0.2678 -0.12951,-0.3322 0.1066,-0.041 0.32346,-0.049 0.4819,-0.02 0.37475,0.071 0.45988,-0.1535 0.23424,-0.6194 -0.12688,-0.262 -0.14137,-0.4002 -0.0531,-0.5065 0.2183,-0.263 0.0204,-0.2604 -0.28723,0 -0.22876,0.1965 -0.26914,0.2893 -0.16929,0.3892 0.0999,0.1004 0.0331,0.2397 -0.28005,0.5862 -0.22612,0.2502 -0.41113,0.5561 -0.41113,0.6796 0,0.1492 -0.0751,0.2246 -0.22339,0.2246 -0.21188,0 -0.39056,0.2892 -0.61421,0.9937 -0.0621,0.1959 -0.0318,0.2434 0.15531,0.2434 0.26878,0 0.30121,0.1402 0.0756,0.3274 -0.14307,0.1188 -0.2869,0.6724 -0.30152,1.1603 -0.008,0.2675 -0.19892,0.3623 -0.66462,0.3303 l -0.39518,-0.027 0.28111,0.2352 c 0.47088,0.3939 1.49358,0.2475 3.82349,-0.5473 7.14732,-2.4384 8.63402,-3.0419 11.07678,-4.4968 0.96723,-0.576 1.26989,-0.9407 1.27516,-1.5364 0.004,-0.4641 -0.30432,-1.3959995 -0.58922,-1.7802995 -0.74953,-1.0107 -2.09372,-1.9099 -3.46812,-2.32 -0.87335,-0.2606 -1.04727,-0.351 -1.07842,-0.5604 -0.0646,-0.4337 0.27525,-0.6796 0.88733,-0.6423 0.29666,0.018 0.60625,0.087 0.68798,0.1522 0.0818,0.066 0.2625,0.154 0.4017,0.1966 0.439,0.1346 0.29462,-0.197 -0.43025,-0.988 -0.38597,-0.4212 -0.66734,-0.8263 -0.64664,-0.931 0.0617,-0.3118 0.76122,-0.6052 1.44058,-0.6039 0.47633,8e-4 0.75116,0.076 1.18425,0.3246 1.30853,0.7505 2.50039,2.7077 2.83811,4.6607 0.10332,0.5974 0.21507,1.0856 0.2484,1.0848 0.10637,0 0.72292,-1.714 0.86989,-2.4149 0.27737,-1.3227 0.12556,-3.702 -0.24962,-3.9118 -0.13094,-0.073 -0.14077,-0.1441 -0.045,-0.3232 0.0675,-0.1263 0.0909,-0.3565 0.0519,-0.512 -0.0913,-0.3638 0.17185,-0.7704 0.56215,-0.8683 0.39056,-0.098 0.55648,0.052 0.97484,0.8805 0.31341,0.6209 0.34716,0.7987 0.40028,2.1089 0.0655,1.6143 -0.15704,3.188 -0.59375,4.1988 -0.35933,0.8316 -0.50485,1.2178995 -0.47149,1.2512995 0.0656,0.066 1.31041,-1.5208995 1.84334,-2.3490995 0.84248,-1.3092 1.59572,-3.0025 1.67091,-3.7561 0.10863,-1.0892 0.13727,-1.1625 0.45439,-1.1625 0.45792,0 0.70758,0.1959 1.1789,0.9252 0.49286,0.7625 0.55555,1.2287 0.28396,2.1111 -0.15385,0.4998 -0.72526,1.6902 -0.86361,1.7993 -0.0391,0.031 -0.14952,0.2079 -0.24507,0.3936 -0.0955,0.1855 -0.305,0.46 -0.46549,0.6099 -0.16054,0.15 -0.29182,0.3239 -0.29182,0.3864 0,0.063 -0.10988,0.2307 -0.2441,0.3735 -0.43429,0.4622995 -0.13329,0.4017 0.54216,-0.1093 0.36179,-0.2735 0.79297,-0.5679 0.95823,-0.654 0.34903,-0.182 2.4547,-2.2008 2.4547,-2.3534 0,-0.056 0.16146,-0.1863 0.35876,-0.2884 0.34763,-0.1797 0.36535,-0.1774 0.56983,0.075 0.24541,0.3031 0.19695,0.9816 -0.13426,1.8795 -0.26106,0.7078 -1.14065,1.9439995 -1.71206,2.4061995 -0.25382,0.2054 -0.60872,0.4935 -0.78871,0.6404 -0.51594,0.421 -0.28077,0.4126 0.37746,-0.014 0.32892,-0.2129 0.75909,-0.4835 0.95597,-0.6015 0.19683,-0.1178 0.77275,-0.5179 1.27975,-0.8890995 0.50706,-0.3711 1.0049,-0.7254 1.10634,-0.7872 0.10143,-0.062 0.35452,-0.2345 0.56241,-0.3836 0.50811,-0.3647 0.73019,-0.2238 0.77677,0.4927 0.0531,0.8173 -0.38758,1.6286995 -1.17669,2.1665995 -0.34133,0.2328 -0.73015,0.5133 -0.86394,0.6234 -0.23828,0.1962 -0.23054,0.199 0.3752,0.138 0.34016,-0.034 0.97272,-0.083 1.40569,-0.1068 0.43294,-0.024 0.86523,-0.075 0.96064,-0.1128 0.0955,-0.038 0.37378,-0.027 0.61851,0.023 0.36208,0.074 0.51318,0.1923 0.81052,0.6342 0.21948,0.3262 0.3654,0.6841 0.36526,0.8959 l -2.1e-4,0.3528 -1.77099,0.011 c -1.52249,0.01 -1.94832,0.054 -3.03537,0.3189 -0.69547,0.1692 -1.28519,0.3413 -1.31053,0.3825 -0.0255,0.042 1.07613,0.074 2.44774,0.074 h 2.49375 l 0.74779,0.368 c 0.82949,0.4085 1.78226,1.3476 2.13648,2.1059 0.1156,0.2474 0.25179,0.5257 0.3027,0.6185 0.37236,0.6788 0.66993,1.4645 0.80912,2.1367 0.46362,2.2386 0.51011,2.8546 0.23615,3.1285 -0.19976,0.1998 -0.19782,0.2179 0.0643,0.5911 0.25404,0.3616 0.26764,0.4593 0.22441,1.6111 -0.0417,1.1084 -0.0705,1.2461 -0.30037,1.4322 -0.1893,0.1533 -0.30729,0.1777 -0.46144,0.095 -0.41696,-0.2233 -0.41054,-0.099 0.0191,0.367 0.24201,0.2629 0.47067,0.5972 0.50824,0.7429 0.0911,0.3535 -0.0348,1.6435 -0.18844,1.9308 -0.0675,0.1259 -0.14061,0.3716 -0.16267,0.5461 -0.0728,0.5748 -0.51313,1.4403 -0.7993,1.5707 -0.15047,0.068 -0.27402,0.2143 -0.27457,0.3238 0,0.3416 -0.49486,1.6548 -0.70919,1.8884 -0.1123,0.1224 -0.31537,0.3997 -0.4513,0.6162 -0.13592,0.2164 -0.42932,0.4829 -0.65194,0.5921 -0.36876,0.1812 -0.41096,0.2509 -0.47421,0.7852 -0.05,0.4214 -0.14128,0.643 -0.32472,0.7877 -0.99299,0.7832 -1.88235,1.4281 -2.18268,1.5823 -0.19419,0.099 -0.44722,0.3387 -0.56226,0.5308 -0.20441,0.3413 -0.54995,0.5258 -2.1021,1.1229 -0.54756,0.2107 -1.08713,0.1546 -1.08713,-0.1129 0,-0.064 -0.0506,-0.1152 -0.11246,-0.1152 -0.0618,0 -0.11246,0.073 -0.11246,0.1624 0,0.307 -0.50778,0.7262 -1.44293,1.1911 -0.65912,0.3275 -1.01785,0.4452 -1.20984,0.397 -0.24837,-0.063 -0.26653,-0.1087 -0.20141,-0.5159 0.0841,-0.5253 -0.0555,-0.5796 -0.32357,-0.1258 -0.23743,0.4019 -1.0451,1.1403 -1.24725,1.1403 -0.0831,0 -0.31595,0.083 -0.5175,0.1828 -0.4516,0.2252 -1.56134,0.1365 -1.77008,-0.1417 -0.1193,-0.1589 -0.18952,-0.141 -0.64288,0.165 -0.87008,0.5873 -1.58289,0.647 -2.10282,0.1765 -0.30734,-0.2781 -0.27316,-0.8108 0.18981,-2.9575 0.22148,-1.0269 0.47404,-2.2719 0.56125,-2.7667 0.0872,-0.4948 0.3056,-1.4058 0.48539,-2.0242 0.17973,-0.6185 0.43803,-1.602 0.57394,-2.1854 0.13589,-0.5835 0.29663,-1.1907 0.35716,-1.3495 0.0606,-0.1587 0.20405,-0.7188 0.3189,-1.2444 0.26466,-1.2116 0.53056,-2.3872 0.68676,-3.0363 0.0669,-0.2784 0.18106,-1.1387 0.25361,-1.9117 0.13915,-1.483 0.0532,-2.1717 -0.32286,-2.5872 -0.0924,-0.1025 -0.16805,-0.2196 -0.16805,-0.2611 0,-0.189 0.26411,-0.036 0.73028,0.4239 0.35451,0.3496 0.50846,0.5945 0.51254,0.8153 0.004,0.1737 0.12185,0.7669 0.26364,1.3182 0.23492,0.9134 0.25596,1.2232 0.23704,3.4862 -0.0114,1.366 -0.0544,2.6861 -0.0953,2.9335 l -0.0745,0.4498 0.16696,-0.4498 0.16694,-0.4499 -0.0638,0.3936 c -0.0348,0.2165 -0.1092,0.7225 -0.1647,1.1245 -0.20227,1.465 -0.44552,2.5903 -0.84662,3.9171 -0.25097,0.8304 -0.94745,4.0548 -0.93922,4.3483 0,0.062 0.0763,-0.023 0.1658,-0.1869 0.0894,-0.1648 0.26756,-0.8732 0.3958,-1.5744 0.15351,-0.8395 0.34766,-1.4959 0.56855,-1.9222 0.77533,-1.496 1.47875,-5.7476 1.39069,-8.4053 -0.1089,-3.287 -0.18332,-3.9769 -0.50344,-4.6669 -0.17219,-0.3711 -0.34802,-0.8409 -0.39074,-1.044 -0.0431,-0.2048 -0.19819,-0.4483 -0.34809,-0.5465 -0.14872,-0.097 -0.24053,-0.2255 -0.20397,-0.2846 0.16729,-0.2708 1.24272,1.2043 1.40513,1.9272 0.0545,0.2426 0.24388,0.6867 0.42086,0.9867 0.17699,0.3002 0.43719,0.9229 0.57825,1.3841 0.14107,0.461 0.33131,0.986 0.42274,1.1664 0.0914,0.1805 0.23469,0.6866 0.31834,1.1246 0.0837,0.438 0.2063,1.0242 0.27249,1.3024 0.15755,0.6623 0.22781,3.9161 0.10321,4.7794 -0.0535,0.3711 -0.19861,1.4337 -0.32234,2.3615 -0.12373,0.9277 -0.29476,1.9399 -0.3801,2.2492 -0.32429,1.1752 -0.33211,1.2345 -0.14174,1.0765 0.23061,-0.1914 0.79054,-1.9817 1.00871,-3.2252 0.41211,-2.349 0.46617,-5.3465 0.14204,-7.8724 -0.0882,-0.6872 -0.2267,-1.3703 -0.30781,-1.5181 -0.0811,-0.1477 -0.15682,-0.3192 -0.16826,-0.381 -0.0975,-0.5274 -0.46867,-1.5757 -0.74138,-2.0938 -0.18288,-0.3475 -0.34397,-0.7096 -0.35795,-0.8048 -0.0383,-0.2606 -0.52299,-1.1655 -0.76135,-1.4213 -0.25323,-0.2719 -0.27001,-0.4595 -0.0412,-0.4595 0.0928,0 0.16868,0.057 0.16868,0.1243 0,0.068 0.43119,0.534 0.95823,1.0346 0.82055,0.7796 1.03783,1.0693 1.51232,2.0154 0.30475,0.6079 0.68731,1.5465 0.85009,2.0861 0.16284,0.5395 0.39826,1.3097 0.52313,1.7118 0.12491,0.4021 0.2466,0.8322 0.27048,0.9559 0.0238,0.1237 0.0922,0.4778 0.15191,0.7872 0.0597,0.3092 0.13596,0.7899 0.16954,1.0682 0.0336,0.2784 0.11162,0.9052 0.17342,1.3929 0.0618,0.4878 0.0827,1.1457 0.0464,1.462 -0.0362,0.3162 -0.0806,1.0557 -0.0986,1.6433 -0.0179,0.5876 -0.0704,1.4577 -0.11632,1.9337 -0.12764,1.3204 0.0991,1.6976 0.28132,0.4679 0.0536,-0.3622 0.15402,-1.0381 0.22309,-1.502 0.15038,-1.0099 0.15611,-3.1287 0.0123,-4.6342 -0.12916,-1.3547 -1.05993,-5.1034 -1.4739,-5.9364 -0.16908,-0.3403 -0.44654,-0.9728 -0.61659,-1.4057 -0.17005,-0.4331 -0.40399,-0.8917 -0.5198,-1.0194 -0.11582,-0.1278 -0.21056,-0.2849 -0.21056,-0.3495 0,-0.1742 -1.78295,-1.9344 -2.15379,-2.1261 -0.17612,-0.091 -0.32025,-0.2481 -0.32025,-0.3489 0,-0.1683 0.0169,-0.168 0.20568,0.01 0.11309,0.1025 0.26831,0.1862 0.3449,0.1862 0.14392,0 0.70002,0.4194 1.52839,1.1526 0.26203,0.232 0.55934,0.4218 0.66067,0.4218 0.10133,0 0.1842,0.048 0.1842,0.1061 0,0.059 0.3163,0.431 0.70287,0.828 1.36451,1.4012 3.29447,4.9613 3.66942,6.769 0.077,0.3711 0.24613,1.0037 0.37589,1.4057 0.20562,0.6372 0.23823,1.0331 0.25396,3.0858 0.0208,2.7124 0.18246,3.1907 0.3509,1.0379 0.12619,-1.6126 0.0268,-3.3234 -0.22765,-3.9233 -0.0976,-0.23 -0.17957,-0.6602 -0.18229,-0.9559 -0.004,-0.2957 -0.0814,-0.7401 -0.1746,-0.9875 -0.41214,-1.0928 -0.61119,-1.7589 -0.55351,-1.8523 0.0344,-0.055 -0.12836,-0.4388 -0.36141,-0.852 -0.23304,-0.4132 -0.568,-1.0111 -0.74434,-1.3288 -0.37432,-0.6744 -1.73875,-2.5133 -2.1174,-2.8539 -0.50947,-0.4583 -1.16674,-0.997 -1.61034,-1.3199 -0.24741,-0.18 -0.49026,-0.3934 -0.53973,-0.4741 -0.0495,-0.081 -0.17597,-0.1468 -0.28116,-0.1468 -0.10516,0 -0.3325,-0.1771 -0.50523,-0.3936 -0.28711,-0.3597 -0.29505,-0.3936 -0.093,-0.3936 0.1216,0 0.36412,0.1165 0.53897,0.2587 0.17482,0.1422 0.69407,0.4838 1.15391,0.7591 0.45983,0.2752 1.09235,0.6651 1.40568,0.8666 0.31329,0.2014 0.71673,0.4544 0.89651,0.5623 0.42116,0.2526 0.9241,0.7581 2.02113,2.0316 1.16274,1.3497 1.83263,2.4004 2.55814,4.0121 0.27971,0.6213 0.46426,1.2077 0.47807,1.5187 0.014,0.3126 0.11604,0.6357 0.26667,0.8434 0.16558,0.2284 0.30092,0.6988 0.42039,1.4613 0.1936,1.2357 0.27372,1.5645 0.36025,1.4779 0.10481,-0.1049 0.12373,-1.0854 0.0221,-1.1482 -0.055,-0.034 -0.1,-0.2086 -0.1,-0.3882 0,-0.8336 -0.80793,-3.4349 -1.31099,-4.2207 -0.0814,-0.1271 -0.2461,-0.5166 -0.36617,-0.8656 -0.25383,-0.7378 -0.60447,-1.2837 -1.28039,-1.9938 -0.26615,-0.2796 -0.79119,-0.8878 -1.16665,-1.3517 -0.78966,-0.9756 -1.86833,-2.0242 -2.08221,-2.0242 -0.0809,-10e-5 -0.4762,-0.2024 -0.87823,-0.4498 -0.40202,-0.2474 -0.81835,-0.4498 -0.92516,-0.4498 -0.1068,0 -0.27512,-0.1235 -0.37401,-0.2745 -0.0989,-0.1509 -0.28587,-0.2901 -0.41552,-0.3092 -0.12962,-0.02 -0.25887,-0.1052 -0.28723,-0.1913 -0.0399,-0.1207 0.0221,-0.138 0.27232,-0.075 0.17812,0.045 0.39982,0.1463 0.49261,0.2263 0.0927,0.079 0.447,0.2489 0.78715,0.3754 0.75182,0.2797 1.83861,0.8442 2.82884,1.4698 0.40577,0.2562 0.81375,0.4658 0.90663,0.4658 0.0929,0 0.39875,0.2025 0.67982,0.4499 0.28107,0.2474 0.61637,0.4498 0.74516,0.4498 0.1417,0 0.33467,0.1515 0.48878,0.3836 0.69729,1.0507 1.49133,2.1763 1.71251,2.4278 0.13605,0.1547 0.47693,0.6363 0.75757,1.0704 0.28065,0.4342 0.59278,0.8578 0.69369,0.9415 0.10091,0.084 0.18339,0.2489 0.18339,0.3672 0,0.2747 0.48853,1.2431 0.72697,1.441 0.13532,0.1124 0.21485,0.1186 0.30916,0.024 0.0943,-0.094 0.0513,-0.1865 -0.16704,-0.3582 -0.21178,-0.1666 -0.31523,-0.3796 -0.3701,-0.7624 -0.08,-0.5581 -0.63639,-1.5678 -1.48296,-2.6913 -0.26289,-0.3487 -0.47794,-0.6895 -0.47794,-0.7572 0,-0.1603 -1.2345,-1.5431 -2.02419,-2.2673 -0.69751,-0.6396 -1.15179,-0.9323 -2.29722,-1.4794 -0.43741,-0.2089 -0.89648,-0.5037 -1.0202,-0.6549 -0.12432,-0.1521 -0.56346,-0.3971 -0.98185,-0.5478 -0.41631,-0.1498 -1.07417,-0.4226 -1.46192,-0.6063 -0.38771,-0.1835 -0.92001,-0.3968 -1.18289,-0.4743 -0.26288,-0.077 -0.47794,-0.1832 -0.47794,-0.2353 0,-0.1316 0.10374,-0.1236 1.63279,0.1259 1.52494,0.2488 2.6079,0.5542 3.59639,1.0143 0.37109,0.1727 0.9167,0.4189 1.21248,0.547 0.29576,0.1281 0.95363,0.5058 1.46191,0.8391 0.50828,0.3335 1.05067,0.6722 1.20528,0.7528 0.15463,0.08 0.6466,0.5009 1.09322,0.9339 0.85592,0.83 1.66092,1.3862 1.7642,1.2191 0.0341,-0.054 -0.25365,-0.3455 -0.63885,-0.6461 -0.38525,-0.3008 -0.99436,-0.8323 -1.35363,-1.1815 -0.35924,-0.349 -0.94118,-0.8277 -1.29323,-1.0638 -0.35201,-0.2362 -0.74125,-0.5158 -0.86493,-0.6216 -0.80955,-0.6918 -4.20262,-2.0509 -6.01633,-2.4098 -1.12138,-0.2219 -1.71443,-0.4059 -2.04156,-0.6334 -0.16415,-0.1141 -0.35393,-0.2076 -0.42172,-0.2076 -0.0678,0 -0.12321,-0.059 -0.12321,-0.129 0,-0.3061 6.13729,0.1051 6.54829,0.4386 0.0785,0.064 0.4464,0.177 0.81754,0.2517 1.32596,0.2667 2.98003,0.9598 2.98003,1.2484 0,0.057 0.24039,0.2203 0.53416,0.3657 0.29379,0.1452 0.90476,0.4773 1.35772,0.7379 0.96362,0.5542 1.28017,0.5597 0.57059,0.01 -0.27197,-0.2108 -0.61722,-0.5012 -0.76722,-0.6455 -0.34146,-0.3284 -1.90433,-1.2696 -2.6511,-1.5966 -0.30929,-0.1354 -0.81532,-0.273 -1.12457,-0.3057 -0.30925,-0.033 -0.78647,-0.1606 -1.06053,-0.2838 -0.4439,-0.1999 -1.46949,-0.4697 -2.25689,-0.5937 -0.15462,-0.024 -0.61008,-0.098 -1.01206,-0.1638 -0.40203,-0.066 -1.39851,-0.12 -2.21435,-0.1205 -0.81588,0 -1.51114,-0.045 -1.54502,-0.1004 -0.034,-0.055 0.35529,-0.1606 0.86489,-0.2351 0.50956,-0.075 1.08293,-0.2007 1.2741,-0.2806 0.49444,-0.2067 1.92851,-0.3359 2.10461,-0.1898 0.078,0.065 0.20451,0.078 0.28114,0.031 0.19238,-0.1189 3.31195,-0.034 4.07014,0.111 0.89566,0.1711 2.5156,0.617 2.80603,0.7723 0.38808,0.2078 0.43658,0.013 0.0697,-0.2803 -0.4427,-0.3538 -1.38061,-0.7013 -2.28103,-0.8451 -0.40688,-0.065 -0.82098,-0.1599 -0.92027,-0.2111 -0.39122,-0.2014 -1.72042,-0.2452 -3.49384,-0.1153 -1.02277,0.075 -1.91393,0.1786 -1.98032,0.2306 -0.0664,0.052 -0.3166,0.087 -0.55593,0.078 -0.23934,-0.01 -0.45193,0.034 -0.47238,0.095 -0.0204,0.062 -0.19062,0.089 -0.3781,0.062 -0.18748,-0.027 -0.69637,0.037 -1.13091,0.142 -0.4345,0.1056 -0.81856,0.1634 -0.85346,0.1285 -0.0348,-0.034 0.20441,-0.1876 0.53184,-0.3394 0.32744,-0.1517 0.62861,-0.3296 0.66928,-0.3954 0.0408,-0.066 0.36383,-0.1444 0.71809,-0.1746 0.35425,-0.03 0.74026,-0.1062 0.85779,-0.1691 0.11752,-0.063 0.3815,-0.116 0.58658,-0.1179 0.20507,0 0.47109,-0.078 0.59112,-0.1687 0.20524,-0.1553 0.19517,-0.1647 -0.16865,-0.1568 -0.21285,0.01 -1.07866,0.069 -1.92405,0.143 -1.18667,0.1035 -1.58785,0.1805 -1.75986,0.3361 -0.17222,0.1559 -0.31847,0.1837 -0.64426,0.1227 l -0.4214,-0.078 0.66316,-0.3171 c 0.36471,-0.1744 0.69748,-0.3193 0.73942,-0.3218 0.042,-0.01 0.38727,-0.1899 0.76743,-0.4163 0.3971,-0.2365 0.93769,-0.4507 1.27061,-0.5033 0.35367,-0.056 0.64625,-0.176 0.75072,-0.3081 0.0942,-0.119 0.34835,-0.2527 0.56482,-0.2968 0.2165,-0.044 0.67193,-0.1935 1.01211,-0.3318 0.3402,-0.1383 0.71431,-0.2856 0.8314,-0.3271 0.11709,-0.042 0.18871,-0.099 0.15917,-0.1292 -0.0297,-0.029 -0.65581,0.1233 -1.3917,0.34 -0.73589,0.2165 -1.41785,0.3936 -1.51539,0.3936 -0.0976,0 -0.52861,0.1727 -0.95784,0.3836 -0.74877,0.368 -1.72454,0.7516 -2.4913,0.9793 -0.19878,0.06 -0.39153,0.1561 -0.42834,0.2157 -0.0369,0.06 -0.17131,0.1082 -0.29895,0.1082 -0.33748,0 -0.091,-0.2601 0.51738,-0.5461 0.26704,-0.1256 0.51118,-0.3197 0.5425,-0.4315 0.0357,-0.1268 0.36807,-0.3257 0.88631,-0.5298 0.45614,-0.1798 1.03174,-0.4634 1.27916,-0.6302 0.42808,-0.2887 1.54229,-0.7515 2.02418,-0.8408 0.43429,-0.081 1.1171,-0.3728 1.15811,-0.4958 0.0558,-0.1677 -0.029,-0.1589 -0.87734,0.091 -0.91482,0.2691 -2.13869,0.7708 -2.36119,0.9678 -0.0927,0.083 -0.53391,0.2724 -0.98036,0.4224 -0.44645,0.1502 -0.87657,0.3229 -0.95589,0.3838 -0.0793,0.061 -0.43505,0.1997 -0.79053,0.3083 -0.35554,0.1086 -0.67482,0.2435 -0.70951,0.2997 -0.0996,0.1612 -0.27469,0.1187 -0.27469,-0.067 0,-0.093 0.0523,-0.1688 0.11611,-0.1688 0.13921,0 2.12811,-0.9809 2.33251,-1.1503 0.18505,-0.1534 0.0769,-0.2674 -0.11246,-0.1186 -0.0788,0.062 -0.39634,0.2064 -0.7056,0.321 -0.30924,0.1146 -0.68874,0.2731 -0.84337,0.3525 -0.15463,0.079 -0.37304,0.1445 -0.48533,0.1449 -0.1123,3e-4 -0.31475,0.061 -0.44982,0.1325 -0.34516,0.1853 -0.61964,0.2086 -3.28192,0.2774 l -2.36157,0.061 -0.87168,0.5238 c -0.47944,0.2882 -1.06138,0.6361 -1.29323,0.7734 -1.79985,1.065 -7.78733,2.7357 -7.78733,2.1731 0,-0.06 0.36689,-0.2138 0.81529,-0.3436 0.44844,-0.1298 1.16954,-0.3383 1.60251,-0.4633 1.18477,-0.342 1.16054,-0.3293 0.88232,-0.4591 -0.31062,-0.1447 -1.54824,0.1004 -3.55361,0.7033 -0.81434,0.245 -1.5847,0.4455 -1.71183,0.4455 -0.12713,0 -0.88818,0.2328 -1.69126,0.5173 -0.80305,0.2845 -1.66254,0.5857 -1.90995,0.6693 -1.02342,0.3461 -2.27066,0.9013 -2.26024,1.0063 0.005,0.062 0.0584,0.097 0.11595,0.077 0.0576,-0.019 0.41184,-0.077 0.78719,-0.1292 1.65105,-0.2282 3.32047,-0.4665 3.9436,-0.5629 0.37109,-0.058 0.94181,-0.1344 1.26833,-0.171 0.57404,-0.064 0.59176,-0.058 0.53719,0.1908 -0.0455,0.2076 0.0545,0.3414 0.51725,0.6922 l 0.5737,0.4347 -0.0612,0.6745 -0.0612,0.6746 0.43357,-0.069 c 0.26164,-0.042 0.46307,-0.022 0.50807,0.051 0.0459,0.074 0.24325,0.092 0.51285,0.046 0.53403,-0.09 0.6063,0.1267 0.10518,0.3159 -0.27893,0.1053 -0.33088,0.1843 -0.31949,0.4864 0.007,0.1984 -0.0654,0.4396 -0.16188,0.5361 -0.15892,0.159 -0.16976,0.1335 -0.11548,-0.2713 0.0327,-0.2456 0.0132,-0.4467 -0.0442,-0.4467 -0.0938,0 -0.93765,1.6523 -0.93765,1.8357 0,0.1229 0.32242,0.087 0.56141,-0.062 0.16904,-0.1055 0.30093,-0.1078 0.56075,-0.011 0.27009,0.1025 0.33976,0.098 0.33976,-0.019 0,-0.161 -0.30461,-0.3168 -0.44722,-0.2287 -0.0492,0.03 -0.14718,-0.014 -0.21761,-0.099 -0.19376,-0.2335 0.12913,-0.3314 1.16139,-0.3523 0.88142,-0.018 0.88763,-0.017 0.63414,0.1893 -0.14077,0.1139 -0.38351,0.2073 -0.53936,0.2073 -0.26292,0 -0.27861,0.029 -0.21728,0.4075 0.0366,0.2241 0.0824,0.4238 0.10248,0.4438 0.02,0.02 0.24984,0.049 0.51085,0.064 0.30096,0.018 0.47459,0.082 0.47459,0.1747 0,0.1784 -0.24653,0.1926 -0.41526,0.024 -0.0889,-0.089 -0.18846,-0.088 -0.35987,0.011 -0.18598,0.099 -0.23695,0.2335 -0.23695,0.6228 0,0.4262 0.0424,0.5164 0.30092,0.6425 0.38078,0.1857 0.47037,0.4279 0.15823,0.4279 -0.12882,0 -0.23426,-0.056 -0.23426,-0.1247 0,-0.077 -0.15399,-0.1068 -0.4003,-0.078 -0.37061,0.043 -0.39548,0.027 -0.33522,-0.2126 0.0907,-0.3613 -0.13592,-0.3332 -0.63583,0.078 -0.3645,0.3004 -0.6605,0.9285 -0.50902,1.0799 0.0289,0.029 0.22527,-0.049 0.43616,-0.1734 0.90395,-0.5334 1.7041,-0.3665 1.84504,0.3849 0.0408,0.2169 0.10889,0.3944 0.15148,0.3944 0.38015,0 0.47739,-1.0402 0.13789,-1.4749 -0.5451,-0.698 -0.34836,-1.0403 0.60298,-1.0495 l 0.59775,-0.011 -0.17983,-0.3046 c -0.10174,-0.1726 -0.41444,-0.4056 -0.72054,-0.5374 -0.29739,-0.1278 -0.54073,-0.2797 -0.54073,-0.3374 0,-0.1908 0.44859,-0.5272 0.90256,-0.677 0.24579,-0.082 0.44691,-0.1777 0.44691,-0.2145 0,-0.037 -0.15377,-0.1351 -0.34169,-0.2183 -0.24919,-0.1103 -0.58393,-0.1297 -1.23698,-0.071 -1.11077,0.098 -1.16113,-0.03 -0.30496,-0.7822 0.41227,-0.3618 0.67222,-0.5088 0.86169,-0.4867 0.44369,0.051 0.38466,-0.1872 -0.11586,-0.4685 -0.36383,-0.2045 -0.65471,-0.266 -1.31477,-0.278 l -0.84755,-0.016 -0.17736,-0.5235 c -0.0975,-0.2879 -0.28813,-0.6407 -0.42354,-0.7839 -0.13541,-0.1434 -0.24231,-0.3113 -0.2375,-0.3731 0.005,-0.062 -0.11039,-0.1732 -0.25587,-0.2474 -0.23237,-0.1184 -0.24086,-0.1439 -0.0697,-0.2095 0.10715,-0.042 0.34091,-0.015 0.51947,0.06 0.25263,0.1046 0.6139,0.1035 1.62857,-0.011 1.31274,-0.1402 1.51479,-0.2388 1.13524,-0.5538 -0.31269,-0.2595 -0.20707,-0.4813 0.19683,-0.4133 1.51651,0.2552 2.77012,0.3308 3.29646,0.1987 0.48407,-0.1216 1.24282,-0.502 1.87343,-0.9393 0.15871,-0.1101 0.22591,-0.094 0.37131,0.088 0.17209,0.2157 0.17523,0.2139 0.10247,-0.058 -0.083,-0.3112 -0.081,-0.2905 -0.0625,-0.652 0.0175,-0.335 0.45448,-0.735 0.97961,-0.8963 0.67541,-0.2071 1.28281,0.2214 1.28281,0.9052 0,0.5738 -0.3206,0.9611 -1.10346,1.3329 -1.08512,0.5156 -2.75111,1.5869 -3.51934,2.2631 -0.78141,0.6878 -0.78744,0.6816 0.84611,0.8638 1.1921,0.133 1.04054,0.1025 4.50764,0.9196 2.5982,0.6124 3.34819,0.877 3.5959,1.2681 0.22237,0.3509 0.31465,1.4926 0.1828,2.261 -0.0636,0.3711 -0.29377,1.3325 -0.51135,2.1367 -0.45057,1.6649 -0.58748,2.2186 -1.47353,5.9601 -0.35153,1.4844 -0.7602,3.1544 -0.90818,3.711 -0.148,0.5566 -0.29549,1.1849 -0.32771,1.3963 -0.0323,0.2114 -0.18582,0.8439 -0.34125,1.4056 -0.66567,2.406 -0.62568,2.3241 -1.00063,2.0499 z m -9.26264,-16.9301 c 0.12309,-0.3328 0.0212,-0.6853 -0.19799,-0.6853 -0.4526,0 -1.48261,0.6667 -1.35285,0.8756 0.0276,0.044 0.36527,0.079 0.75076,0.078 0.63529,0 0.71022,-0.027 0.80008,-0.2694 z m -1.4238,-3.2717 c 0.0383,-0.062 0.0162,-0.1125 -0.0496,-0.1125 -0.0656,0 -0.11909,0.05 -0.11909,0.1125 0,0.062 0.0225,0.1124 0.0496,0.1124 0.0272,0 0.0809,-0.05 0.1191,-0.1124 z m 4.91419,-1.4339 c 0.1008,-0.1701 0.3901,-0.5327 0.64277,-0.8059 0.25268,-0.2732 0.44675,-0.5046 0.43127,-0.5142 -0.0812,-0.05 -2.90126,0.1719 -4.02027,0.3175 -0.71125,0.092 -1.31852,0.1598 -1.34947,0.1496 -0.17128,-0.057 -0.0173,0.675 0.19731,0.9373 0.0438,0.053 1.78017,0.1638 3.23644,0.2056 0.63027,0.018 0.69169,-0.01 0.86195,-0.2899 z m -5.77801,-0.057 c -0.0968,-0.6789 -1.37505,-0.7509 -4.30908,-0.2426 -1.47366,0.2554 -1.51817,0.2662 -1.51817,0.368 0,0.051 1.3192,0.1004 2.93154,0.1093 l 2.93149,0.016 z m 31.41593,-2.2453 c -0.0806,-0.081 -0.13308,-0.088 -0.13308,-0.017 0,0.15 0.13299,0.283 0.20805,0.2081 0.0319,-0.031 0,-0.1181 -0.075,-0.1913 z m 0.55346,-0.1162 c -0.0514,-0.1392 -0.18228,-0.2706 -0.29092,-0.292 -0.18378,-0.036 -0.18289,-0.019 0.0128,0.2495 0.26075,0.3577 0.40262,0.3794 0.27827,0.042 z m -22.05294,-0.3589 c 0,-0.027 -0.0506,-0.081 -0.11245,-0.1191 -0.0618,-0.038 -0.11247,-0.016 -0.11247,0.049 0,0.066 0.0506,0.1191 0.11247,0.1191 0.0618,0 0.11245,-0.023 0.11245,-0.049 z m 0.87934,-1.2717 c 0.0293,-0.2053 -0.0179,-0.253 -0.24907,-0.253 -0.16321,0 -0.33305,0.09 -0.39744,0.2101 -0.14235,0.266 -0.0383,0.3715 0.32523,0.3292 0.19742,-0.023 0.29642,-0.1113 0.32128,-0.2863 z m -15.17266,-0.2218 c 0.36917,-0.324 0.44023,-0.5358 0.20834,-0.6212 -0.23216,-0.086 -0.41712,0.03 -0.59274,0.3697 -0.32375,0.6259 -0.16258,0.7314 0.3844,0.2515 z m 0.57382,0.1937 c 0,-0.062 -0.0729,-0.1125 -0.16202,-0.1125 -0.0891,0 -0.19335,0.05 -0.23156,0.1125 -0.0383,0.062 0.0348,0.1123 0.16202,0.1123 0.12738,0 0.23156,-0.05 0.23156,-0.1123 z m 1.46192,-0.3448 c 0,-0.5833 -0.14395,-0.8475 -0.51212,-0.9399 -0.43799,-0.1099 -0.9498,-1.2949 -0.9498,-2.199 0,-0.7927 -0.13478,-0.8624 -0.65743,-0.3397 -0.18553,0.1855 -0.36655,0.3373 -0.40225,0.3373 -0.0358,0 -0.0648,-0.1771 -0.0648,-0.3936 0,-0.2165 -0.0521,-0.3936 -0.11581,-0.3936 -0.13027,0 -0.0777,1.3076 0.0577,1.4384 0.0454,0.044 0.15918,-0.035 0.25277,-0.1733 0.31745,-0.4723 0.65003,-0.2835 0.48915,0.2774 -0.0636,0.2217 -0.0439,0.5419 0.0574,0.9325 0.17693,0.6822 0.24507,0.7849 0.37797,0.5698 0.13971,-0.2261 0.45508,-0.056 0.45508,0.244 0,0.3245 0.29552,0.7596 0.51594,0.7596 0.0912,0 0.19496,0.075 0.23058,0.1687 0.12326,0.3212 0.26556,0.1667 0.26556,-0.2886 z m -3.03626,-0.8361 c 0.077,-0.093 0.23499,-0.1686 0.35112,-0.1686 0.11611,0 0.21114,-0.05 0.21114,-0.1124 0,-0.062 -0.13435,-0.1125 -0.29857,-0.1125 -0.28957,0 -0.29256,-0.01 -0.0988,-0.2207 0.19419,-0.2146 0.17179,-0.5665 -0.0362,-0.5665 -0.10935,0 -0.43059,0.6153 -0.46965,0.8997 -0.0635,0.4621 0.0873,0.5865 0.34087,0.281 z m 3.71099,-1.905 c 0,-0.089 -0.055,-0.1961 -0.12224,-0.2376 -0.1588,-0.098 -0.37555,0.1186 -0.27742,0.2773 0.11026,0.1784 0.39966,0.1497 0.39966,-0.04 z m 0.653,-0.2345 c -0.0348,-0.034 -0.0975,0.027 -0.13975,0.1387 -0.061,0.1603 -0.0481,0.1732 0.063,0.064 0.0769,-0.076 0.1114,-0.167 0.0768,-0.2016 z m 3.25205,-1.3192 c 0.0718,-0.6373 -0.30348,-1.3137 -0.73172,-1.3188 -0.27819,0 -0.2611,0.3138 0.0327,0.6076 0.38303,0.383 0.31363,0.5813 -0.18804,0.5369 -0.25454,-0.023 -0.48044,0.039 -0.64845,0.1742 l -0.25778,0.2087 0.71527,0.2875 c 0.84703,0.3403 0.99125,0.2739 1.07804,-0.4961 z m -3.02708,0.1608 c 0.0387,-0.5217 0.0803,-0.5528 0.379,-0.2825 0.2795,0.253 0.40505,0.096 0.14935,-0.1861 -0.14387,-0.1589 -0.34652,-0.2255 -0.68615,-0.2255 -0.59092,0 -0.69323,0.137 -0.3901,0.5222 0.12772,0.1624 0.23219,0.3939 0.23219,0.5144 0,0.4271 0.2815,0.1217 0.31571,-0.3425 z m 21.58487,-0.04 c 0.44845,-0.1969 0.81532,-0.3995 0.81532,-0.4501 0,-0.1351 -0.0899,-0.1141 -0.9467,0.2215 -0.42792,0.1677 -0.79901,0.3681 -0.82468,0.4455 -0.0686,0.2066 0.0555,0.1785 0.95606,-0.2169 z m 3.82116,-0.1603 c -0.0374,-0.038 -0.13441,-0.042 -0.21559,-0.01 -0.0897,0.036 -0.063,0.063 0.068,0.068 0.11856,0.01 0.18498,-0.022 0.14763,-0.06 z m 3.99889,-0.3944 c -0.0666,-0.067 -0.21506,-0.099 -0.32987,-0.071 -0.18076,0.043 -0.17106,0.065 0.0725,0.1662 0.31715,0.1313 0.4388,0.087 0.25743,-0.095 z m -4.55429,-0.5355 c 0.0362,-0.108 -0.004,-0.1157 -0.16099,-0.03 -0.11496,0.062 -0.29761,0.1402 -0.40586,0.1738 -0.10821,0.034 -0.19679,0.1132 -0.19679,0.1773 0,0.1602 0.70159,-0.1337 0.76364,-0.3198 z m 1.03563,-0.015 c 0.0928,-0.061 0.11811,-0.1089 0.0563,-0.1089 -0.0618,0 -0.18834,0.049 -0.28111,0.1089 -0.0928,0.061 -0.11807,0.1091 -0.0563,0.1091 0.0618,0 0.18837,-0.049 0.28111,-0.1091 z m -9.25499,-0.55 c 0.11923,-0.1909 0.10733,-0.1978 -0.14213,-0.083 -0.14973,0.069 -0.27261,0.1878 -0.27311,0.2632 0,0.1866 0.25552,0.075 0.41524,-0.1811 z m 9.92972,0.087 c 0,-0.062 -0.0506,-0.082 -0.11243,-0.043 -0.0619,0.039 -0.11246,0.1201 -0.11246,0.182 0,0.062 0.0506,0.082 0.11246,0.043 0.0618,-0.039 0.11243,-0.1202 0.11243,-0.182 z m -24.40436,-0.4785 c 0,-0.1934 -0.0747,-0.5541 -0.16377,-0.8014995 -0.24915,-0.6916 -0.22916,-0.7518 0.2217,-0.6672 0.4657,0.087 0.52337,-0.093 0.17223,-0.5397 -0.16314,-0.2074 -0.29622,-0.2671 -0.50604,-0.2269 -0.15659,0.03 -0.28473,0.01 -0.28473,-0.049 0,-0.2077 0.27891,-0.373 0.629,-0.373 0.46528,0 0.56231,-0.2562 0.25458,-0.6724 -0.25556,-0.3457 -0.63448,-0.4975 -0.94458,-0.3785 -0.17009,0.065 -0.16312,0.094 0.0627,0.2651 l 0.25399,0.1915 -0.52758,0.3631 c -0.58663,0.4035 -0.61047,0.5713 -0.10007,0.7036 0.36063,0.093 0.67952,0.3822 0.55721,0.5044 -0.0395,0.04 -0.27461,0.011 -0.52262,-0.077 -0.55215,-0.1822 -0.66563,-0.099 -0.33457,0.2455 0.32476,0.338 0.93577,1.6245995 0.84286,1.7749995 -0.0395,0.064 -0.0391,0.1693 0,0.234 0.1298,0.2101 0.3903,-0.1234 0.38852,-0.4971 z m 15.42687,0.1825 c 0.24677,-0.232 0.50298,-0.5229 0.56936,-0.6466 0.0664,-0.1236995 -0.16529,0.052 -0.51487,0.3899 -0.34963,0.3382 -0.63563,0.6292 -0.63563,0.6467 0,0.1059 0.18697,-0.02 0.58114,-0.39 z m 2.11779,-2.9386995 c 0,-0.1274 -0.0404,-0.1153 -0.16513,0.049 -0.0909,0.1201 -0.16513,0.2942 -0.16513,0.387 0,0.1274 0.0404,0.1152 0.16513,-0.049 0.0909,-0.12 0.16513,-0.2943 0.16513,-0.387 z m 1.17127,0.1395 c 0.0592,-0.1543 0.0428,-0.1613 -0.10039,-0.042 -0.19516,0.1621 -0.21544,0.2271 -0.0708,0.2271 0.0552,0 0.13231,-0.083 0.17124,-0.1846 z m -6.3362,-1.454 c -0.14076,-0.2819 -0.28655,-0.4819 -0.32396,-0.4445 -0.0373,0.038 0.0542,0.2917 0.20347,0.5649 0.35324,0.6467 0.45354,0.5465 0.12049,-0.1204 z m -13.49372,0.069 c 0.5323,-0.5166 0.5232,-0.7706 -0.0357,-0.9958 -0.20177,-0.082 -0.45398,-0.1948 -0.56049,-0.252 -0.12461,-0.067 -0.29523,-0.057 -0.4784,0.025 -0.42975,0.1959 -0.44993,0.053 -0.0672,-0.4755 0.30857,-0.4259 0.40845,-0.4761 0.35502,-0.1785 -0.0246,0.1381 0.22051,0.41 0.36986,0.4097 0.0819,0 0.12695,-0.2755 0.12721,-0.7757 3.4e-4,-0.58 0.05,-0.8305 0.19679,-0.9927 0.22373,-0.2472 0.25727,-0.4804 0.0691,-0.4804 -0.48394,0 -1.3192,0.9466 -1.38529,1.5699 -0.079,0.7439 -0.72539,0.031 -0.758,-0.8349 -0.009,-0.2498 -0.0709,-0.3977 -0.16542,-0.3977 -0.15619,0 -0.18752,0.1235 -0.19955,0.7872 -0.006,0.3835 -0.0191,0.3939 -0.47505,0.4058 -0.97871,0.026 -1.09291,0.2908 -0.14437,0.3353 0.53965,0.025 1.11833,0.2771 1.11833,0.4866 0,0.053 -0.15332,0.262 -0.34067,0.4626 -0.18739,0.2006 -0.32417,0.3812 -0.30403,0.4013 0.02,0.02 0.31261,-0.037 0.64991,-0.1266 0.71133,-0.1893 1.54255,-0.2131 1.95543,-0.057 0.38393,0.146 0.36717,0.3402 -0.0294,0.3402 -0.18709,0 -0.41147,0.1046 -0.54556,0.2531 -0.39441,0.4381 -0.41227,0.5341 -0.0993,0.5341 0.18289,0 0.45479,-0.1622 0.7466,-0.4454 z m 11.31423,0.1375 c -0.17299,-0.1731 -0.19006,-0.1737 -0.19006,-0.01 0,0.1004 0.0633,0.2059 0.14055,0.2335 0.22976,0.083 0.25284,-0.024 0.0496,-0.2268 z m -10.1902,-1.0135 c 0.0187,-0.4363 0.12261,-0.7704 0.38787,-1.2449 0.35889,-0.6422 0.35154,-0.7609 -0.0306,-0.4958 -0.1701,0.1178 -0.38992,0.243 -0.48848,0.2784 -0.28214,0.1014 -0.91457,0.9553 -0.7724,1.0433 0.0673,0.042 0.22072,-0.014 0.34087,-0.1222 0.27117,-0.2454 0.42736,-0.119 0.23453,0.1897 -0.11009,0.1763 -0.11238,0.2651 -0.0105,0.3885 0.1803,0.2172 0.32829,0.201 0.33841,-0.037 z m 20.31033,-0.9489 c -0.0357,-0.09 -0.0625,-0.064 -0.0679,0.068 -0.005,0.1186 0.0217,0.185 0.0591,0.1476 0.0373,-0.038 0.0412,-0.1343 0.009,-0.2156 z m -4.23764,-0.2038 c 0,-0.062 -0.0506,-0.1124 -0.11247,-0.1124 -0.0618,0 -0.11246,0.05 -0.11246,0.1124 0,0.062 0.0506,0.1125 0.11246,0.1125 0.0618,0 0.11247,-0.05 0.11247,-0.1125 z M 34.077129,41.389532 c -0.30976,-0.1328 -0.67668,-0.3555 -0.81529,-0.4947 -0.26322,-0.2642 -0.33238,-0.6399 -0.13975,-0.759 0.12176,-0.075 1.14387,0.4399 1.50604,0.759 0.12278,0.1082 0.26789,0.1969 0.32237,0.1969 0.1718,0 0.0352,0.5027 -0.14148,0.5216 -0.0927,0.01 -0.42214,-0.091 -0.73189,-0.2238 z m 2.3631,-4.3456 c -0.1123,-0.124 -0.15191,-0.2256 -0.088,-0.2256 0.14148,0 0.42196,0.3215 0.34639,0.397 -0.0297,0.03 -0.14608,-0.047 -0.25838,-0.1714 z m 0,-0.4505 c -0.0412,-0.067 0.0842,-0.1125 0.30567,-0.1125 0.37067,0 0.72043,-0.1827 1.12577,-0.588 0.11446,-0.1144 0.3367,-0.257 0.49393,-0.3168 0.41775,-0.1588 0.27096,-0.3701 -0.36013,-0.5181 -0.81975,-0.1924 -1.18769,-0.1763 -1.67686,0.073 -0.24217,0.1234 -0.48176,0.183 -0.53243,0.1324 -0.0507,-0.05 -0.0315,-0.3551 0.0428,-0.6765 0.11543,-0.5 0.10817,-0.6403 -0.0504,-0.9728 -0.11429,-0.2396 -0.29424,-0.4159 -0.46966,-0.4599 -0.15641,-0.039 -0.28434,-0.1199 -0.28434,-0.1791 0,-0.217 0.51599,0.046 0.88023,0.4493 0.31855,0.3522 0.36876,0.4829 0.33739,0.8784 l -0.0369,0.4645 0.73097,-0.015 c 0.72071,-0.015 1.6868,0.2127 1.6868,0.3968 0,0.052 0.0705,0.094 0.15667,0.094 0.14736,0 0.29318,0.2283 0.29318,0.459 0,0.056 -0.14302,0.1035 -0.3178,0.1035 -0.197,0 -0.42132,0.1108 -0.59036,0.2918 -0.14995,0.1606 -0.40929,0.3629 -0.57629,0.4498 -0.35102,0.1826 -1.05636,0.2104 -1.15824,0.045 z m -14.41608,-1.6271 c -0.17354,-0.1526 -0.2551,-0.2791 -0.18123,-0.2811 0.0738,-0.01 0.2763,0.1213 0.44984,0.2741 0.17354,0.1526 0.25506,0.2792 0.18119,0.2812 -0.0738,0 -0.27626,-0.1215 -0.4498,-0.2742 z m 0.64034,-0.5163 c 0,-0.066 0.0506,-0.088 0.11247,-0.049 0.0618,0.038 0.11246,0.092 0.11246,0.1191 0,0.027 -0.0506,0.049 -0.11246,0.049 -0.0618,0 -0.11247,-0.053 -0.11247,-0.1191 z m -11.67727,-15.0114 c 0.0384,-0.4831 0.0266,-0.508 -0.21357,-0.4476 -0.34885,0.088 -0.32404,0.041 0.203,-0.3829 0.52878,-0.4249 0.64557,-0.3967 0.39154,0.094 -0.23893,0.4621 -0.0692,0.4404 0.40051,-0.051 0.57754,-0.6043 0.76312,-0.6799 0.96441,-0.3925 0.133,0.1899 0.20118,0.2124 0.32663,0.1083 0.12557,-0.1045 0.15855,-0.093 0.15855,0.054 0,0.2515 -0.26687,0.3371 -0.56057,0.1797 -0.20822,-0.1114 -0.30986,-0.072 -0.7516,0.2898 -0.28096,0.2301 -0.56104,0.5626 -0.62242,0.7388 -0.17235,0.4944 -0.34228,0.3847 -0.29648,-0.1914 z m -1.9578698,-0.3121 c -0.29254,-0.2395 -0.40947,-0.5168 -0.22492,-0.5335 0.0464,-0.01 0.2488,-0.029 0.44983,-0.055 0.38298,-0.05 0.50098,0.099 0.17683,0.2236 -0.17436,0.067 -0.17478,0.086 -0.005,0.2557 0.1008,0.1004 0.33529,0.1833 0.52106,0.1833 0.1857798,0 0.3117098,0.042 0.2798598,0.094 -0.1194,0.1932 -0.8880898,0.086 -1.1972998,-0.1676 z m 0.9849598,-0.7524 c 0.0388,-0.063 0.27446,-0.218 0.52374,-0.3453 0.35324,-0.1802 0.44031,-0.2805 0.39469,-0.4551 -0.0677,-0.2588 0.21009,-0.4189 0.3991,-0.2298 0.16322,0.1633 -0.0486,0.4154 -0.69391,0.8261 -0.51514,0.3279 -0.7469698,0.4036 -0.62362,0.2041 z m 2.22719,-0.8876 c -0.0308,-0.118 -0.15263,-0.2399 -0.27061,-0.2706 -0.3967,-0.1035 -0.24289,-0.3811 0.24786,-0.4469 0.29142,-0.039 0.58244,-0.1771 0.78718,-0.3732 0.38364,-0.3676 0.40323,-0.5035 0.1,-0.6929 -0.34711,-0.2168 -0.26768,-0.3634 0.19677,-0.3634 0.34745,0 0.47721,-0.07 0.73681,-0.395 0.31504,-0.3948 0.32065,-0.6172 0.0158,-0.6172 -0.27134,0 -0.17706,-0.1588 0.20597,-0.347 0.19963,-0.098 0.43811,-0.3114 0.53,-0.474 0.15025,-0.2659 0.14741,-0.3291 -0.028,-0.6262 -0.26594,-0.4503 -0.25098,-0.4852 0.1738,-0.4055 0.47969,0.09 0.84334,-0.2471 0.65203,-0.6045 -0.17923,-0.335 -0.15463,-0.3746 0.20898,-0.3364 0.34419,0.036 0.90663,-0.3656 0.90663,-0.6476 0,-0.077 0.0886,-0.1665 0.19679,-0.198 0.11373,-0.033 0.0781,-0.049 -0.0843,-0.037 -0.22939,0.017 -0.2877,-0.035 -0.31674,-0.2885 -0.0255,-0.2208 0.0149,-0.3091 0.14056,-0.3091 0.0969,0 0.17618,0.045 0.17618,0.1014 0,0.055 0.16023,0.1573 0.35608,0.2256 0.45057,0.1571 0.8489,-0.069 0.90131,-0.5126995 0.042,-0.3542 0.31694,-0.5044 0.31694,-0.1731 0,0.2711 0.1893,0.3545995 0.62564,0.2763 0.50642,-0.091 0.74503,-0.3523 0.66295,-0.7259 -0.0898,-0.409 0.1,-0.4118 0.45631,-0.01 0.35618,0.4047 0.3493,0.4457 -0.10681,0.6362 -0.21239,0.089 -0.46298,0.3100995 -0.5569,0.4915995 -0.16075,0.3109 -0.20313,0.3271 -0.72208,0.2772 -0.49545,-0.048 -0.58139,-0.02 -0.84878,0.2679 -0.21205,0.2287 -0.29747,0.4424 -0.29747,0.7437 0,0.4553 -0.23594,0.5842 -0.43103,0.2356 -0.0951,-0.1701 -0.134,-0.1642 -0.42421,0.064 -0.37722,0.2969 -0.73432,0.9972 -0.65064,1.276 0.0429,0.143 -0.005,0.1968 -0.1734,0.1968 -0.13168,0 -0.23249,-0.073 -0.23249,-0.1687 0,-0.2717 -0.15246,-0.1942 -0.38822,0.1975 -0.46146,0.7668 -0.53141,1.0219 -0.45971,1.6767 0.0758,0.6923 -0.0871,0.986 -0.27401,0.494 -0.0602,-0.1583 -0.12929,-0.2879 -0.15357,-0.2879 -0.0242,0 -0.18556,0.2151 -0.35855,0.478 -0.52881,0.8036 -1.44975,1.8805 -1.60953,1.8821 -0.0831,0 -0.17634,-0.095 -0.2072,-0.213 z m 4.40666,-5.7456 c 0.0383,-0.062 0.0158,-0.1125 -0.0497,-0.1125 -0.0655,0 -0.11909,0.05 -0.11909,0.1125 0,0.062 0.0225,0.1124 0.0497,0.1124 0.0272,0 0.0809,-0.05 0.11909,-0.1124 z m 0.50604,-0.2746 c 0,-0.027 -0.0506,-0.082 -0.11247,-0.119 -0.0618,-0.039 -0.11241,-0.016 -0.11241,0.049 0,0.066 0.0506,0.119 0.11241,0.119 0.0619,0 0.11247,-0.022 0.11247,-0.049 z m -6.64737,5.7961 c -0.27438,-0.2725 -0.46197,-0.6843 -0.39324,-0.8634 0.045,-0.1172 0.27227,-0.1599 0.85208,-0.1599 0.43488,0 0.78891,-0.039 0.78672,-0.085 -0.002,-0.046 -0.0762,-0.2109 -0.1647,-0.3655 -0.1753,-0.3067 -0.22869,-0.95 -0.0708,-0.8524 0.0539,0.033 0.1266,0.2038 0.16162,0.3789 0.039,0.1952 0.17527,0.3694 0.35189,0.4498 0.15851,0.072 0.2882,0.1783 0.2882,0.2356 0,0.143 -0.97196,0.4627 -1.40697,0.4627 -0.46785,0 -0.54226,0.095 -0.32951,0.4194 0.2327,0.3552 0.17796,0.6306 -0.0753,0.3791 z m 3.51156,-0.073 c -0.14752,-0.1555 -0.23197,-0.319 -0.1876,-0.3633 0.0443,-0.045 0.14531,0.01 0.22437,0.1159 0.23403,0.3201 0.42061,0.2407 0.35863,-0.1522 -0.0614,-0.3896 0.0105,-0.6632 0.17355,-0.6632 0.0594,0 0.0751,0.1035 0.0348,0.2304 -0.0435,0.1368 0.004,0.3454 0.11238,0.5136 0.14557,0.2221 0.15675,0.3179 0.0519,0.4443 -0.19713,0.2375 -0.46524,0.1937 -0.76802,-0.1255 z m 0.97106,-0.6905 c -0.10825,-0.028 -0.19678,-0.1036 -0.19678,-0.1678 0,-0.065 0.0872,-0.083 0.19678,-0.04 0.31975,0.1237 0.81529,0.2062 0.81529,0.1357 0,-0.035 -0.12648,-0.2518 -0.28111,-0.4795 -0.37334,-0.5502 -0.39259,-1.3962 -0.0399,-1.7489 l 0.24128,-0.2412 0.1664,0.3255 c 0.20058,0.3927 0.47557,0.7194 0.60546,0.7194 0.16584,0 0.10238,-0.423 -0.0737,-0.4906 -0.22253,-0.086 -0.21608,-0.6155 0.0162,-1.3254 0.22292,-0.6817 0.44087,-0.7992 0.76093,-0.4103 0.12925,0.1571 0.35324,0.3468 0.4977,0.4216 0.14442,0.075 0.23712,0.1615 0.20593,0.1927 -0.0806,0.081 -0.86222,-0.3048 -0.86222,-0.4251 0,-0.1844 -0.3216,-0.1014 -0.37759,0.097 -0.27898,0.9908 -0.20273,1.3344 0.34704,1.5641 0.47169,0.1972 0.38477,0.3346 -0.27869,0.4406 -0.32489,0.052 -0.4779,0.035 -0.4779,-0.05 0,-0.07 -0.0741,-0.1269 -0.16474,-0.1269 -0.0907,0 -0.21888,-0.1015 -0.28511,-0.2249 -0.27401,-0.5121 -0.42503,-0.129 -0.26483,0.6718 0.0494,0.2469 0.2151,0.4657 0.51959,0.6864 l 0.44717,0.3239 -0.30206,0.1148 c -0.30428,0.1158 -0.85103,0.1325 -1.21515,0.038 z m 8.79957,-1.2265 c 0,-0.2097 0.42048,-0.8326 0.56207,-0.8326 0.0533,0 -0.0306,0.2277 -0.186,0.506 -0.30445,0.5447 -0.37607,0.6069 -0.37607,0.3266 z m -11.35791,-0.4127 c -0.21648,-0.053 -0.53276,-0.1256 -0.70285,-0.1593 -0.17008,-0.035 -0.30925,-0.098 -0.30925,-0.1423 0,-0.1929 0.16715,-0.211 0.53406,-0.058 0.21617,0.09 0.43791,0.1642 0.49275,0.1642 0.0548,0 0.0671,-0.2775 0.0272,-0.6166 -0.05,-0.4249 -0.0285,-0.6698 0.069,-0.7872 0.18465,-0.2226 0.22115,-0.215 0.61998,0.1265 0.33708,0.2886 0.23414,0.321 -0.30924,0.097 -0.16634,-0.068 -0.19678,-0.017 -0.19678,0.331 0,0.3206 0.0803,0.4853 0.36242,0.743 0.19931,0.182 0.33846,0.3352 0.30922,0.3403 -0.30837,0.054 -0.56598,0.043 -0.89656,-0.039 z m 11.3668,-0.3731 c 0.005,-0.131 0.0318,-0.1576 0.068,-0.068 0.0323,0.082 0.0286,0.1781 -0.009,0.2156 -0.0373,0.038 -0.0639,-0.029 -0.0591,-0.1477 z m -1.12508,-0.7652 c -0.0699,-0.1788 -0.10154,-0.3504 -0.0704,-0.3816 0.0311,-0.03 0.0886,0.027 0.12764,0.128 0.10174,0.2652 0.19712,0.2293 0.35846,-0.1352 0.18803,-0.4248 0.89779,-0.6795 1.33633,-0.4798 l 0.29841,0.136 -0.38282,0.3213 c -0.21052,0.1767 -0.4011,0.271 -0.42355,0.2096 -0.0225,-0.062 0.0158,-0.168 0.0843,-0.2368 0.19824,-0.1983 0.1471,-0.305 -0.14599,-0.305 -0.25447,0 -0.59802,0.3176 -0.9263,0.8564 -0.12021,0.1973 -0.1378,0.1896 -0.25617,-0.113 z m -8.89288,-0.3492 c 0.11226,-0.1353 0.10081,-0.2494 -0.059,-0.5859 -0.29345,-0.6185 -0.34453,-1.3205 -0.12093,-1.6617 0.24643,-0.376 0.45971,-0.3578 0.63032,0.053 0.23088,0.5574 0.32362,0.3848 0.25816,-0.4805 -0.0501,-0.6623 -0.028,-0.8457995 0.1165,-0.9657995 0.15377,-0.1276 0.1885,-0.1075 0.25213,0.1461 0.0675,0.2691995 0.34253,0.5129995 0.57862,0.5129995 0.0526,0 0.0939,-0.2988 0.0917,-0.6639995 -0.004,-0.5783 0.0412,-0.7199 0.34559,-1.0964 0.47259,-0.5848 0.70028,-0.6201 0.6857,-0.1065 -0.005,0.217 0.067,0.4855 0.16257,0.5966 0.21426,0.2491 0.34453,0.5955 0.22399,0.5955 -0.18229,0 -0.55658,-0.5179 -0.63202,-0.8745 l -0.078,-0.3684 -0.2434,0.3093 c -0.2608,0.3315 -0.32868,1.1494 -0.14506,1.7489995 0.1173,0.383 -0.0362,0.4027 -0.66066,0.085 -0.24262,-0.1237 -0.45576,-0.225 -0.47361,-0.225 -0.10352,0 -0.005,0.7387 0.15033,1.127 0.10049,0.2512 0.15887,0.4806 0.12972,0.5098 -0.10558,0.1056 -0.86965,-0.2925 -0.98878,-0.5151 -0.16699,-0.3121 -0.33582,-0.1744 -0.33582,0.2738 0,0.2339 0.12598,0.544 0.34245,0.8427 l 0.3424,0.4728 -0.25808,0.2152 c -0.30772,0.2565 -0.51186,0.292 -0.3149,0.054 z m 4.42605,-0.03 c 0.0294,-0.047 -0.0104,-0.2043 -0.0879,-0.3492 -0.14829,-0.2771 -0.10813,-0.8021 0.0614,-0.8021 0.0547,0 0.0993,0.1746 0.0993,0.388 0,0.2504 0.0697,0.4292 0.19679,0.504 0.17163,0.1014 0.17523,0.1304 0.028,0.2288 -0.20023,0.1338 -0.37246,0.1516 -0.29765,0.03 z m 4.34603,-0.4193 c 0,-0.092 -0.10123,-0.231 -0.22488,-0.3082 -0.26794,-0.1674 -0.30033,-0.3332 -0.046,-0.2356 0.11144,0.043 0.28277,-0.043 0.45435,-0.2285 0.27023,-0.2914 0.71621,-0.4063 0.71621,-0.1847 0,0.062 -0.0574,0.1126 -0.12768,0.1126 -0.24027,0 -0.6434,0.5434 -0.58076,0.7828 0.0341,0.1296 0.005,0.2293 -0.0657,0.2293 -0.069,0 -0.12558,-0.075 -0.12558,-0.1677 z m -3.5817,-0.9247 c -0.22573,-0.2298 -0.45205,-0.4057 -0.50298,-0.3909 -0.0508,0.015 -0.0761,-0.088 -0.0562,-0.2289 0.0523,-0.3681 0.34205,-0.315 0.44559,0.082 0.0484,0.1856 0.2526,0.4766 0.45363,0.6467 0.20108,0.1701 0.29918,0.3093 0.21804,0.3093 -0.0811,0 -0.33229,-0.188 -0.55806,-0.4177 z m 0.83858,0.1273 c -0.12725,-0.3318 -0.069,-0.7325 0.18344,-1.262 l 0.2517,-0.5281 0.0373,0.3936 c 0.0221,0.2313 0.15836,0.5208 0.3305,0.7017 0.16113,0.1694 0.25378,0.3466 0.20585,0.3936 -0.0479,0.047 -0.2294,-0.085 -0.40332,-0.2917 -0.30155,-0.3597 -0.32174,-0.3667 -0.43637,-0.1526 -0.0946,0.1769 -0.0736,0.2837 0.0986,0.5027 0.12029,0.153 0.18668,0.3102 0.14744,0.3494 -0.12963,0.1295 -0.34601,0.074 -0.41538,-0.1066 z m 1.81299,0.05 c -0.32302,-0.1808 -0.23886,-1.2221 0.0988,-1.2221 0.0862,0 0.15662,-0.053 0.15662,-0.1191 0,-0.066 0.0478,-0.09 0.10626,-0.053 0.0646,0.04 0.0486,0.2568 -0.0408,0.5543 -0.0897,0.2981 -0.10872,0.557 -0.0486,0.6644 0.12517,0.2236 -0.0196,0.3173 -0.27223,0.1759 z m 3.85397,-0.4821 c 0,-0.484 0.30887,-1.135 0.72106,-1.5197 0.19092,-0.1780995 0.27052,-0.3447995 0.22828,-0.4777995 -0.0718,-0.2264 0.12419,-0.2709 0.40012,-0.091 0.14043,0.092 0.10876,0.1576 -0.1888,0.3937 -0.40432,0.3209995 -0.82332,0.9441995 -0.82332,1.2249995 0,0.1551 0.0404,0.1658 0.23457,0.062 0.36658,-0.1963 0.32686,-0.088 -0.14063,0.3842 l -0.43128,0.4353 z m -1.12453,-1.2411 c 0,-0.2624 0.47334,-1.1707995 0.64417,-1.2361995 0.11828,-0.045 0.1136,0 -0.0204,0.1894 -0.25693,0.3668 -0.21133,0.4974 0.0791,0.226 0.32816,-0.3067 1.2089,-0.4036 1.2089,-0.133 0,0.066 -0.0886,0.1106 -0.19679,0.099 -0.55151,-0.057 -0.76938,0.034 -1.22819,0.5137995 -0.27912,0.2914 -0.48674,0.4366 -0.48674,0.3404 z m 6.69849,-0.057 c -0.16062,-0.058 -0.18008,-0.1024 -0.0745,-0.1673 0.0786,-0.049 0.19841,-0.032 0.2662,0.034 0.16592,0.166 0.0746,0.229 -0.19166,0.1323 z M 17.217739,9.3312325 c -0.0909,-0.6057 0.0971,-1.1087 0.60379,-1.6154 0.37636,-0.3764 0.75625,-0.4926 0.64268,-0.1965 -0.0769,0.2003 0.13329,0.8466 0.27538,0.8466 0.0558,0 0.10164,-0.089 0.10185,-0.1968 0,-0.28 0.35561,-0.8259 0.84814,-1.3042 0.60153,-0.5843 0.71196,-0.5459 0.57668,0.2005 -0.0745,0.4109 -0.0727,0.7704 0.005,1.0964 l 0.11645,0.4851 0.0136,-0.4612 c 0.008,-0.2752 0.11689,-0.6148 0.26985,-0.8417 0.29761,-0.4416 1.02431,-0.8869 1.32095,-0.8093 0.19027,0.049 0.19351,0.09 0.0459,0.5768 -0.17005,0.5604 -0.21578,1.3702 -0.0769,1.3615 0.0464,0 0.18853,-0.218 0.31592,-0.478 0.25862,-0.5276 0.63278,-0.7583 1.36369,-0.8407 0.53821,-0.061 0.59903,0.042 0.31643,0.5368 -0.0884,0.1546 -0.16248,0.5293 -0.16468,0.8328 -0.004,0.5226 0.006,0.5419 0.1969,0.3697 0.3257,-0.2948 0.95241,-0.4909 1.34981,-0.4228 0.45967,0.078 0.49944,0.2083 0.13614,0.4423 -0.26073,0.1679 -0.27049,0.1676 -0.13462,-0.01 0.1242,-0.1577 0.11562,-0.1928 -0.0562,-0.2299 -0.48283,-0.1046 -1.38355,0.317 -1.38355,0.6472 0,0.075 -0.0759,0.2005 -0.16865,0.2776 -0.14753,0.1223 -0.16869,0.028 -0.16869,-0.7485 0,-0.6329 0.0519,-0.9624 0.18012,-1.1456 0.23301,-0.3326 0.1639,-0.3873 -0.36544,-0.2895 -0.60335,0.1114 -1.12805,0.6851 -1.22636,1.341 -0.087,0.5797 -0.19568,0.6372 -0.37008,0.1959 -0.24753,-0.6264 -0.25493,-0.8989 -0.0412,-1.5313 0.11891,-0.3522 0.172,-0.6677 0.11798,-0.701 -0.14306,-0.089 -0.86288,0.3847 -1.07289,0.7052 -0.11845,0.1808 -0.17315,0.4862 -0.15985,0.8927 0.0255,0.7802 -0.0573,0.9137 -0.34227,0.5515 -0.2376,-0.3021 -0.46175,-1.4872 -0.30019,-1.5871 0.12835,-0.079 0.11997,-0.4948 -0.0105,-0.4948 -0.0573,0 -0.25511,0.183 -0.43949,0.4067 -0.40275,0.4886 -0.60786,1.1944 -0.46008,1.5831 0.1363,0.3584 0.13291,0.7092 -0.006,0.7092 -0.15812,0 -0.64544,-0.8048 -0.81351,-1.3433 -0.0783,-0.2508 -0.17846,-0.4561 -0.22267,-0.4561 -0.0442,0 -0.21488,0.2298 -0.37941,0.5104 -0.29578,0.5047 -0.30448,0.6326 -0.0936,1.3732 0.0519,0.1822 0.0246,0.2531 -0.097,0.2531 -0.11367,0 -0.19343,-0.1627 -0.2435,-0.4965 z"
       id="path5365-0-3" />
  </g>
</svg>
